<svg width="79" height="79" viewBox="0 0 79 79" fill="none" xmlns="http://www.w3.org/2000/svg">
<g clip-path="url(#clip0_30_1503)">
<path d="M78.1327 40.3674C78.1327 55.3266 69.6305 68.2999 57.1947 74.7186C57.1947 70.5898 53.8477 67.2428 49.7189 67.2428H11.7475C5.05516 60.3334 0.920037 50.9327 0.867685 40.5662C0.759987 19.2051 18.1387 1.73462 39.5001 1.73462C60.8363 1.73462 78.1327 19.0312 78.1327 40.3674Z" fill="#F1CA50"/>
<path d="M76.8012 50.459C73.9495 61.0253 66.7279 69.7979 57.1947 74.7184C57.1947 70.5896 53.8477 67.2426 49.7189 67.2426H11.7475C7.26372 62.6135 3.9279 56.8659 2.19873 50.459H76.8012Z" fill="#ECB700"/>
<path d="M57.4761 6.30738V72.8503C57.4761 73.5007 57.3776 74.1282 57.1948 74.7185C51.8934 77.4548 45.8771 79 39.5001 79C28.6088 79 18.7704 74.4931 11.7476 67.2426V6.30738C11.7476 2.82397 14.5715 0 18.0549 0H51.1687C54.6521 0 57.4761 2.82397 57.4761 6.30738Z" fill="#54469B"/>
<path d="M40.9192 3.94212C40.9192 4.59525 40.3897 5.12475 39.7366 5.12475H29.4871C28.8339 5.12475 28.3044 4.59525 28.3044 3.94212C28.3044 3.28899 28.8339 2.75948 29.4871 2.75948H39.7366C40.3897 2.75948 40.9192 3.28899 40.9192 3.94212ZM37.3713 74.6094C37.3713 75.2626 36.8418 75.7921 36.1887 75.7921H32.6408C31.9876 75.7921 31.4581 75.2626 31.4581 74.6094C31.4581 73.9563 31.9876 73.4268 32.6408 73.4268H36.1887C36.8418 73.4268 37.3713 73.9563 37.3713 74.6094ZM11.7476 6.30738V67.2427C14.0499 69.6197 16.6547 71.7017 19.5001 73.4268C19.4829 73.2369 19.4741 73.0447 19.4741 72.8503V6.30738C19.4741 2.82397 22.2981 0 25.7815 0H18.0549C14.5715 0 11.7476 2.82397 11.7476 6.30738Z" fill="#172A7D"/>
<path d="M50.5379 71.2735H18.6856C17.3793 71.2735 16.3203 70.2145 16.3203 68.9082V10.2495C16.3203 8.94329 17.3793 7.88428 18.6856 7.88428H50.5379C51.8441 7.88428 52.9031 8.94329 52.9031 10.2495V68.9082C52.9031 70.2145 51.8441 71.2735 50.5379 71.2735Z" fill="#8694DD"/>
<path d="M26.7274 29.9602H23.4161C22.1098 29.9602 21.0508 28.9011 21.0508 27.5949V24.4412C21.0508 23.1349 22.1098 22.0759 23.4161 22.0759H26.7274C28.0337 22.0759 29.0927 23.1349 29.0927 24.4412V27.5949C29.0927 28.9011 28.0337 29.9602 26.7274 29.9602ZM26.7274 40.9981H23.4161C22.1098 40.9981 21.0508 39.9391 21.0508 38.6328V35.4791C21.0508 34.1729 22.1098 33.1139 23.4161 33.1139H26.7274C28.0337 33.1139 29.0927 34.1729 29.0927 35.4791V38.6328C29.0927 39.9391 28.0337 40.9981 26.7274 40.9981ZM26.7274 52.036H23.4161C22.1098 52.036 21.0508 50.977 21.0508 49.6707V46.517C21.0508 45.2108 22.1098 44.1518 23.4161 44.1518H26.7274C28.0337 44.1518 29.0927 45.2108 29.0927 46.517V49.6707C29.0927 50.977 28.0337 52.036 26.7274 52.036ZM37.7654 52.036H34.454C33.1477 52.036 32.0887 50.977 32.0887 49.6707V46.517C32.0887 45.2108 33.1477 44.1518 34.454 44.1518H37.7654C39.0716 44.1518 40.1306 45.2108 40.1306 46.517V49.6707C40.1306 50.977 39.0716 52.036 37.7654 52.036Z" fill="#4F66CF"/>
<path d="M43.1142 48.7888C44.1962 47.7068 45.9506 47.7068 47.0327 48.7888L54.6882 56.4444C55.7703 57.5265 55.7703 59.2809 54.6882 60.3629L49.4113 65.6398C47.667 67.3841 45.1674 68.1416 42.7473 67.664C34.2484 65.9864 26.1379 61.8546 19.5522 55.2689C12.9665 48.6832 8.83481 40.5727 7.15705 32.0738C6.67926 29.6537 7.43678 27.154 9.18125 25.4097L14.4582 20.1328C15.5402 19.0508 17.2946 19.0508 18.3766 20.1328L26.0322 27.7884C27.1142 28.8704 27.1142 30.6248 26.0322 31.7069L21.179 36.5601C22.0551 40.3513 24.1536 44.196 27.3892 47.4317C30.6249 50.6673 34.4696 52.766 38.2608 53.6419L43.1142 48.7888Z" fill="#FD4343"/>
<path d="M53.7779 61.2737L49.4118 65.6398C47.6675 67.3841 45.1679 68.1417 42.7477 67.6639C34.2489 65.9863 26.1384 61.8545 19.5527 55.2688C12.967 48.6831 8.83514 40.5725 7.15754 32.0737C6.67975 29.6535 7.43727 27.1539 9.18174 25.4096L13.5479 21.0435C11.8036 22.7878 11.046 25.2874 11.5237 27.7075C13.2013 36.2064 17.3331 44.3169 23.9188 50.9026C30.5045 57.4883 38.615 61.62 47.1139 63.2977C49.534 63.7755 52.0335 63.018 53.7779 61.2737Z" fill="#D00041"/>
<path d="M72.9292 12.6147V39.4211C72.9292 40.292 72.2233 40.9979 71.3524 40.9979H48.5382L44.3276 45.7349C43.9747 46.132 43.4688 46.3592 42.9376 46.3592C41.7477 46.3592 40.8639 45.2575 41.122 44.0958L41.8105 40.9979H33.8234C32.9525 40.9979 32.2466 40.292 32.2466 39.4211V12.6147C32.2466 11.7438 32.9525 11.0378 33.8234 11.0378H71.3524C72.2233 11.0378 72.9292 11.7438 72.9292 12.6147Z" fill="#F9EECF"/>
<path d="M38.554 40.9979H33.8234C32.9525 40.9979 32.2466 40.292 32.2466 39.4211V12.6147C32.2466 11.7438 32.9525 11.0378 33.8234 11.0378H38.554C37.6831 11.0378 36.9771 11.7438 36.9771 12.6147V39.4211C36.9771 40.292 37.6831 40.9979 38.554 40.9979Z" fill="#FDD194"/>
<path d="M43.1265 37.056C41.8202 37.056 40.7612 35.997 40.7612 34.6907V28.3833C40.7612 27.0771 41.8202 26.0181 43.1265 26.0181C44.4328 26.0181 45.4918 27.0771 45.4918 28.3833V34.6907C45.4918 35.997 44.4328 37.056 43.1265 37.056Z" fill="#A1ADE5"/>
<path d="M52.5879 37.0558C51.2817 37.0558 50.2227 35.9968 50.2227 34.6905V23.6526C50.2227 22.3464 51.2817 21.2874 52.5879 21.2874C53.8942 21.2874 54.9532 22.3464 54.9532 23.6526V34.6905C54.9532 35.9968 53.8942 37.0558 52.5879 37.0558Z" fill="#6C7FD7"/>
<path d="M62.0489 37.0558C60.7426 37.0558 59.6836 35.9968 59.6836 34.6906V17.3452C59.6836 16.039 60.7426 14.98 62.0489 14.98C63.3551 14.98 64.4141 16.039 64.4141 17.3452V34.6906C64.4141 35.9968 63.3551 37.0558 62.0489 37.0558Z" fill="#2740AF"/>
</g>
<defs>
<clipPath id="clip0_30_1503">
<rect width="79" height="79" fill="white"/>
</clipPath>
</defs>
</svg>
