<svg width="97" height="20" viewBox="0 0 97 20" fill="none" xmlns="http://www.w3.org/2000/svg">
<g clip-path="url(#clip0_30_234)">
<path d="M90.04 5.86426V15.5919L96.4495 10.7294L90.04 5.86426Z" fill="#D4D4D4"/>
<path d="M16.63 18.5007C16.63 19.2862 16.0185 20 15.1301 20H13.6309V9.02052C13.8054 6.09962 14.8675 3.77158 19.3045 3.61279C21.2236 3.6369 22.6162 4.39993 23.439 5.36231C24.3208 6.50911 24.699 7.93398 24.699 9.72607C24.699 11.5778 24.2579 13.0772 23.3755 14.2239C22.4936 15.3412 21.3621 15.8995 19.9805 15.8995C17.9081 15.8995 16.9016 15.0368 16.6278 14.8749C16.6279 14.975 16.63 18.5007 16.63 18.5007ZM21.6562 9.85845C21.6562 8.71223 21.446 6.28681 19.0988 6.28681C16.8698 6.28681 16.63 8.65321 16.63 9.85845C16.63 12.9101 18.3641 13.2977 19.1869 13.2977C21.3178 13.2978 21.6562 11.0377 21.6562 9.85845Z" fill="#D4D4D4"/>
<path d="M2.47412 14.6104C3.46769 15.4588 4.9598 15.882 6.94903 15.882C8.87972 15.882 10.3718 15.4735 11.4244 14.6542C12.4771 13.7766 13.0042 12.5483 13.0042 10.9692C13.0042 10.2384 12.8609 9.56401 12.5215 8.95038C12.2106 8.3888 11.6828 7.85887 11.0447 7.53929C10.6397 7.33727 10.3932 7.24917 9.89509 7.09584C9.35761 6.93112 6.68072 6.20089 6.4104 6.12973C4.91934 5.76624 3.97236 5.26979 3.96576 4.38738C4.04295 2.68119 5.63302 2.54489 6.51103 2.54489C7.4164 2.54489 8.134 2.73533 8.6601 3.11527C9.60487 3.85047 9.49975 4.78425 9.49975 4.78425H12.477C12.4185 3.3216 11.8919 2.13596 10.8978 1.22897C9.93278 0.41007 8.55727 0 6.77389 0C4.87228 0 3.42493 0.395244 2.43031 1.18458C1.4357 2.00406 0.93868 3.13 0.93868 4.5631C0.94308 6.40397 1.81564 7.48945 2.60613 7.98533C3.08612 8.27267 4.17716 8.71335 5.5894 8.99419L6.77551 9.25256C8.83266 9.75398 10.0134 10.389 9.97668 11.4077C9.9543 12.0213 9.743 12.4904 9.27439 12.8118C8.84624 13.1046 8.11821 13.2934 7.21284 13.2934C6.1881 13.2934 5.3846 13.0897 4.79996 12.6798C4.24383 12.3289 3.90655 11.7147 3.79052 10.8373H0.719727C0.807346 12.504 1.39189 13.7625 2.47412 14.6104Z" fill="#D4D4D4"/>
<path d="M30.75 6.20081C32.6358 6.17507 32.9286 7.78054 32.9872 8.57045H28.5123C28.5123 8.57045 28.4746 6.24289 30.75 6.20081ZM30.882 13.2649C30.1217 13.2265 28.6744 13.0777 28.5419 10.5449L36.1445 10.5465C36.1457 10.4687 36.1445 9.63509 36.1467 9.63394C36.0941 7.72515 35.6359 6.30306 34.742 5.23565C33.7764 4.1825 32.4167 3.65649 30.6618 3.65649C28.9956 3.65649 27.6933 4.1979 26.7578 5.27946C25.8509 6.33214 25.397 7.79527 25.397 9.66675C25.397 11.6269 25.8645 13.1328 26.8017 14.1855C27.7377 15.2681 29.0394 15.809 30.7056 15.809C32.0812 15.809 33.2214 15.4734 34.1278 14.8001C35.0343 14.157 35.6528 13.2177 35.9748 11.9888L33.3331 11.9893C32.9446 13.0918 31.951 13.3185 30.882 13.2649Z" fill="#D4D4D4"/>
<path d="M81.7984 15.606H78.7565V8.11015C78.7565 7.24582 78.4012 6.08151 76.6841 6.08151C74.9993 6.08151 74.6561 7.40508 74.6561 8.11015V15.6061H71.5688V8.7276C71.5688 6.72909 72.1616 5.50787 73.1342 4.71528C74.0977 3.92977 75.3309 3.67198 76.5954 3.61286C77.2715 3.61286 77.9338 3.68681 78.5798 3.83297C79.2268 3.98133 79.8147 4.27412 80.344 4.71538C80.7856 4.33381 81.3064 4.06129 81.9094 3.89925C82.5115 3.73827 83.1351 3.61631 83.7832 3.61296C87.5481 3.59326 89.059 5.31695 89.1844 5.86983C89.1844 5.87806 89.1853 15.6062 89.1853 15.6062H87.443C87.0025 15.6062 85.9443 15.3068 85.9443 14.1075V8.11015C85.9519 7.26065 85.6542 6.08151 83.8712 6.08151C82.1065 6.08151 81.7984 7.40508 81.7984 8.11015V15.606Z" fill="#D4D4D4"/>
<path d="M44.529 11.9933H47.4132C47.4132 11.9933 46.6304 15.8092 42.2733 15.8092C37.9171 15.8092 36.8447 12.3136 36.8447 10.0161C36.8447 7.71928 37.2526 3.79506 42.104 3.6576C46.5867 3.59026 47.3256 7.47402 47.3256 7.47402H44.2542C44.2542 7.47402 43.957 6.16136 42.1287 6.20249C40.301 6.2441 39.823 7.96071 39.823 9.59191C39.823 11.2237 40.2292 13.2649 42.259 13.2649C44.1886 13.324 44.3589 12.2802 44.529 11.9933Z" fill="#D4D4D4"/>
<path d="M60.5308 3.91724H63.6017V11.3754C63.6017 11.3754 63.4911 13.3926 65.6204 13.3936C67.6282 13.3948 67.6796 11.5889 67.6813 11.4614V5.36458C67.6813 5.36458 67.7848 3.91733 69.1161 3.91733H70.7101C70.7101 3.91733 70.7084 10.7783 70.7101 10.844C70.6881 11.2216 71.1118 15.8099 65.6204 15.7913C60.1799 15.7913 60.5653 11.1495 60.5308 10.8763V3.91724Z" fill="#D4D4D4"/>
<path d="M51.1348 7.0383H52.9383L52.9366 3.96359H51.1384V1.98871C51.1384 1.4473 50.8369 0.49707 49.6905 0.49707H48.1113V13.3968C48.1113 14.7418 48.6331 15.5465 49.7628 15.5465C49.7755 15.5465 51.0876 15.5475 51.1353 15.5475L51.1348 7.0383Z" fill="#D4D4D4"/>
<path d="M56.1527 15.569V9.55806C56.1527 8.6812 56.3564 8.03744 56.767 7.62795C57.1759 7.21854 57.8043 7.01327 58.6532 7.01327H59.6615V3.89857C59.6615 3.89857 58.0732 3.85916 56.9197 4.20562C56.1791 4.4284 55.5233 4.7322 54.9683 5.1701C54.3815 5.63862 53.9218 6.26047 53.5856 7.03508C53.2495 7.81017 53.0815 8.76805 53.0815 9.90882V15.5688H56.1527V15.569Z" fill="#D4D4D4"/>
</g>
<defs>
<clipPath id="clip0_30_234">
<rect width="95.7296" height="20" fill="white" transform="translate(0.719727)"/>
</clipPath>
</defs>
</svg>
