<svg width="20" height="20" viewBox="0 0 20 20" fill="none" xmlns="http://www.w3.org/2000/svg">
<g clip-path="url(#clip0_85_1434)">
<path d="M19.8624 7.55008L18.1831 4.58674C17.9948 4.25446 17.6413 4.05054 17.2624 4.05054H2.73754C2.35862 4.05054 2.00522 4.2545 1.81686 4.58674L0.137559 7.55008C-0.0818795 7.93685 -0.0354574 8.41934 0.253075 8.75827L9.19483 19.2418C9.61586 19.7347 10.3802 19.7394 10.8052 19.2418L19.7469 8.75827C20.0352 8.41965 20.0821 7.93724 19.8624 7.55008Z" fill="#719EFA"/>
<path d="M18.1683 5.34369H17.2972C17.0738 5.34369 16.9555 5.07955 17.1042 4.91292L17.7617 4.17603C17.9354 4.2687 18.0828 4.40964 18.1832 4.5868L18.3933 4.95757C18.491 5.12998 18.3665 5.34369 18.1683 5.34369Z" fill="#80AAFF"/>
<path d="M4.09111 6.58959C3.73296 6.99877 3.46676 7.48277 3.31094 8.0016C3.27779 8.11195 3.1778 8.1885 3.06258 8.1885H0.00652288C-0.0176149 7.97212 0.0250572 7.74842 0.137557 7.55014L1.81686 4.5868C1.91729 4.40964 2.0647 4.2687 2.2384 4.17603L4.08822 6.24877C4.17464 6.34558 4.17658 6.49196 4.09111 6.58959Z" fill="#80AAFF"/>
<path d="M14.1806 8.18848H19.9931C19.9702 8.39408 19.887 8.59321 19.7465 8.7583L10.8048 19.2419C10.6431 19.4311 10.4315 19.5483 10.2078 19.5927C10.2058 19.582 10.0193 20.1228 14.1806 8.18848Z" fill="#80AAFF"/>
<path d="M11.1546 4.05054L14.1814 8.18844H5.81934L8.84604 4.05054H11.1546Z" fill="#80AAFF"/>
<path d="M5.8193 8.18848C9.98259 20.1284 9.79414 19.582 9.79212 19.5927C9.56841 19.5483 9.35677 19.4311 9.19514 19.2419L0.253386 8.7583C0.11287 8.59321 0.0296806 8.39408 0.00683594 8.18848H5.8193Z" fill="#80AAFF"/>
<path d="M6.20171 15.7324L0.253386 8.7583C0.11287 8.59321 0.0296806 8.39408 0.00683594 8.18848H2.94419C3.10466 8.18848 3.22431 8.33274 3.19897 8.49123C3.0388 9.49131 3.28164 10.5694 4.04608 11.4656L7.06041 15.0001C7.54092 15.5636 6.68089 16.2942 6.20171 15.7324Z" fill="#9CBCFF"/>
<path d="M17.7616 4.17597L14.181 8.18844L11.1543 4.05054H17.2624C17.4396 4.05054 17.6107 4.09493 17.7616 4.17597Z" fill="#9CBCFF"/>
<path d="M17.7615 4.17592L16.7968 5.25717C16.7478 5.31217 16.6776 5.34363 16.6039 5.34363H12.2312C12.1487 5.34363 12.0712 5.30428 12.0225 5.23768L11.1543 4.05054H17.2624C17.4396 4.05049 17.6107 4.09489 17.7615 4.17592Z" fill="#C2D6FF"/>
<path d="M8.84557 4.05054L5.81886 8.18844L2.23828 4.17597C2.38914 4.09493 2.56026 4.05054 2.73742 4.05054H8.84557Z" fill="#9CBCFF"/>
<path d="M8.84557 4.05054L7.97738 5.23768C7.92868 5.30428 7.85113 5.34363 7.76863 5.34363H6.87015C5.8974 5.34363 5.06262 5.69333 4.43202 6.24759C4.32512 6.34156 4.16279 6.33246 4.06801 6.22626L2.23828 4.17597C2.38914 4.09493 2.56026 4.05054 2.73742 4.05054H8.84557Z" fill="#C2D6FF"/>
<path d="M11.5904 5.34363H8.40947C8.19779 5.34363 8.07577 5.1032 8.20072 4.93234L8.84563 4.05054H11.1542L11.7991 4.93234C11.9241 5.1032 11.802 5.34363 11.5904 5.34363Z" fill="#9CBCFF"/>
<path d="M4.44471 19.3207C4.17213 19.3207 4.00234 19.0123 4.16036 18.7812L4.77678 17.8799C4.88432 17.7227 5.09893 17.6825 5.25609 17.79C5.41324 17.8975 5.45354 18.1121 5.34604 18.2693L4.72962 19.1706C4.66286 19.2682 4.55471 19.3207 4.44471 19.3207Z" fill="#FFF0A6"/>
<path d="M2.17681 16.6402C2.02862 16.6402 1.89172 16.5439 1.84677 16.3947C1.79185 16.2124 1.89517 16.02 2.07754 15.9651L3.12236 15.6505C3.30456 15.5956 3.49702 15.6989 3.55197 15.8812C3.60689 16.0636 3.50357 16.2559 3.3212 16.3108C2.19164 16.651 2.24737 16.6402 2.17681 16.6402Z" fill="#FFF0A6"/>
<path d="M15.5543 19.3206C15.4443 19.3206 15.3362 19.2681 15.2694 19.1704L14.653 18.2691C14.5455 18.1119 14.5858 17.8974 14.743 17.7898C14.9002 17.6824 15.1148 17.7226 15.2223 17.8798L15.8387 18.7811C15.9962 19.0115 15.8279 19.3206 15.5543 19.3206Z" fill="#FFF0A6"/>
<path d="M17.8225 16.6402C17.7512 16.6402 17.8055 16.6503 16.6781 16.3108C16.4958 16.2559 16.3924 16.0636 16.4473 15.8812C16.5022 15.6989 16.6947 15.5956 16.877 15.6505L17.9218 15.9651C18.1041 16.02 18.2075 16.2124 18.1526 16.3947C18.1076 16.5439 17.9707 16.6402 17.8225 16.6402Z" fill="#FFF0A6"/>
<path d="M10.0001 2.36946C9.80967 2.36946 9.65527 2.21507 9.65527 2.02464V0.731544C9.65527 0.541114 9.80967 0.386719 10.0001 0.386719C10.1905 0.386719 10.3449 0.541114 10.3449 0.731544V2.02464C10.3449 2.21507 10.1905 2.36946 10.0001 2.36946Z" fill="#FFF0A6"/>
<path d="M5.72179 2.35097C5.60412 2.35097 5.48938 2.29067 5.42494 2.18214L4.9146 1.32266C4.81736 1.15891 4.87128 0.947317 5.03507 0.850119C5.19874 0.752921 5.41037 0.806844 5.50761 0.970549L6.01795 1.83003C6.15502 2.06084 5.98645 2.35097 5.72179 2.35097Z" fill="#FFF0A6"/>
<path d="M14.2776 2.35101C14.0128 2.35101 13.8444 2.0608 13.9814 1.83006L14.4917 0.970588C14.589 0.806882 14.8006 0.752874 14.9643 0.850157C15.1281 0.947398 15.182 1.15899 15.0848 1.3227L14.5744 2.18217C14.51 2.29071 14.3953 2.35101 14.2776 2.35101Z" fill="#FFF0A6"/>
</g>
<defs>
<clipPath id="clip0_85_1434">
<rect width="20" height="20" fill="white"/>
</clipPath>
</defs>
</svg>
