<svg width="165" height="20" viewBox="0 0 165 20" fill="none" xmlns="http://www.w3.org/2000/svg">
<path fill-rule="evenodd" clip-rule="evenodd" d="M19.5677 5.11946C21.2082 7.87546 21.267 12.215 19.5089 14.9121C17.3409 18.5482 13.3551 20.483 9.07786 19.8963C5.73718 19.4273 2.39738 16.9646 1.16591 13.6808C-0.475462 9.92797 0.697198 5.47164 3.56828 2.77449C6.55699 -0.157166 11.5382 -0.80269 15.172 1.01532C16.9301 1.89447 18.5706 3.36029 19.5677 5.11946Z" fill="#D4D4D4"/>
<path fill-rule="evenodd" clip-rule="evenodd" d="M19.4503 5.99956C20.7985 9.10687 20.5053 13.2699 18.2785 15.8511C16.1105 18.4894 12.9453 19.8384 9.31237 19.4274C6.32366 19.0172 3.4517 17.0236 1.98675 14.3255C0.404186 11.2173 0.814091 6.76102 3.04092 4.06387C5.44329 1.19106 9.13506 0.0176935 12.8865 0.722063C15.6409 1.24902 18.2197 3.47718 19.4503 5.99956Z" fill="#D4D4D4"/>
<path fill-rule="evenodd" clip-rule="evenodd" d="M12.7109 1.24905C11.5391 1.24905 10.0742 0.955707 9.42905 2.12819C9.42905 2.48038 9.42905 2.83256 9.78103 3.00822C11.0116 3.00822 11.8314 1.60036 13.2973 2.24588C15.934 2.48126 18.5128 4.59173 19.2747 7.11324C19.7434 8.57906 19.9777 10.3962 19.509 11.862C19.5678 10.8072 19.8013 9.39936 18.7471 8.81356C18.3952 8.69675 17.9853 8.81356 17.75 9.10602C17.5745 10.2205 18.9227 10.7484 18.6875 11.9209C18.5119 14.5601 16.8126 17.0807 14.4093 18.1364C12.8268 18.781 10.9519 19.1912 9.13501 18.781C10.0145 18.9567 11.1863 18.781 11.8305 17.9598C11.8894 17.6085 11.7726 17.1975 11.4206 17.0218C10.3068 17.0218 9.42818 18.2532 8.13878 17.7842C5.79433 17.5488 3.56751 16.083 2.39573 13.9145C1.51623 12.1545 1.22394 9.75067 1.8682 7.75701C1.69178 8.81268 1.57504 10.1608 2.39573 10.982C2.57127 11.2165 2.92325 11.2165 3.21641 11.1576C3.56751 10.9232 3.68513 10.3953 3.45077 10.1029C2.68889 9.28167 2.57215 8.10831 2.80651 6.99467C3.15848 4.64882 5.09214 2.42066 7.37778 1.65832C8.90153 0.955711 11.0116 0.896864 12.7109 1.24905Z" fill="#D4D4D4"/>
<path fill-rule="evenodd" clip-rule="evenodd" d="M9.95535 5.17742C10.1906 6.70209 8.90031 7.87458 7.66972 8.57895C7.66972 8.81345 7.90407 8.93026 8.13843 8.9891C9.66219 9.10591 9.19348 6.87863 10.5996 6.99544C11.1271 7.93342 9.36902 8.34445 9.95447 9.34128C10.7118 8.92731 11.4369 8.45669 12.1234 7.93342C12.0058 6.64325 12.4157 5.41192 13.4716 4.70843C13.8227 4.53278 14.3502 4.53277 14.6434 4.76727C15.0533 5.06061 14.9945 5.64642 14.9365 6.05745C14.5846 6.99543 13.8227 7.40647 13.1196 8.10996C13.2372 9.22448 14.409 8.1688 14.9365 8.81345C15.1121 9.2236 14.6434 9.39925 14.3502 9.45809C13.7059 9.28244 13.1196 9.4581 12.5921 9.86825C11.9478 10.3961 11.7714 11.0996 11.6547 11.8031C11.6547 12.8587 12.0646 13.9733 13.1196 14.3834C13.8227 14.4414 14.409 14.3246 14.8777 13.8547C15.2885 13.5034 15.4052 13.0335 15.4052 12.5645C15.3464 12.0955 15.2297 11.5677 14.7022 11.3332C14.3511 11.2155 13.8815 11.3332 13.7059 11.7442C13.354 12.3309 14.5846 12.8587 13.7059 13.268C13.1784 13.21 12.9441 12.6822 12.7685 12.2712C12.7685 11.7433 12.9441 11.2743 13.2372 10.923C13.7059 10.6297 14.2335 10.3943 14.8198 10.5709C15.6405 10.6885 16.0504 11.5088 16.2268 12.2721C16.2268 13.0344 16.1092 13.7379 15.6405 14.3246C15.055 14.9692 14.2931 15.1457 13.4136 15.2046C12.6518 15.0869 11.9487 14.8533 11.3624 14.2069C10.7181 13.2689 10.4249 11.7442 11.0113 10.6885C11.3624 9.98506 11.9487 9.45721 12.535 9.04706C12.6526 8.92938 12.535 8.81257 12.4174 8.69576C11.48 8.98823 10.7181 9.81028 9.83861 10.2195C9.54545 12.0376 9.42871 14.2069 7.55298 15.0281C6.96753 15.2046 6.3812 15.2634 5.79487 14.9701C5.20854 14.6188 5.03299 13.9733 5.0918 13.2689C5.56139 11.3341 7.55298 10.7483 8.96 9.86825C9.07761 9.75056 9.07761 9.63375 9.07761 9.45809C8.66683 9.34129 8.19812 9.86824 7.6706 9.63375C6.79198 9.45809 6.96753 8.28473 6.08803 8.28473C5.56051 7.81574 5.5017 6.99456 5.67813 6.34991C5.79487 6.17426 5.91248 6.05657 6.08803 5.9986C6.26358 6.64325 5.79487 7.64008 6.67348 7.81573C6.96665 6.52556 7.49417 5.00089 8.90031 4.59074C9.3699 4.59162 9.89742 4.70843 9.95535 5.17742Z" fill="#D4D4D4"/>
<path fill-rule="evenodd" clip-rule="evenodd" d="M9.1947 5.52962C9.13589 6.40876 8.43282 7.11313 7.72975 7.58212C7.67094 6.76095 8.13966 5.88092 8.90153 5.41193C9.01827 5.35396 9.13589 5.41281 9.1947 5.52962ZM14.1759 5.52962C14.1171 6.29195 13.5895 6.7021 13.0041 7.11313C13.0041 6.40964 13.2973 5.76411 13.8827 5.41193C14.0003 5.35396 14.1759 5.41281 14.1759 5.52962ZM8.78392 10.866C8.6663 12.215 8.2564 13.5631 7.0258 14.3255C6.55709 14.3843 6.14631 14.2078 6.08838 13.7976C6.14719 12.3318 7.67094 11.4518 8.78392 10.866ZM36.1369 7.52768C36.3011 5.92396 35.2004 5.94504 34.1875 5.94504C31.757 5.94504 31.5218 6.87337 31.154 9.42825L30.7836 12.0033C30.3798 14.8111 31.1136 15.1062 32.8691 15.1062C34.5903 15.1062 35.1161 14.6206 35.4321 12.4249H33.1026L33.5248 9.49148H39.281L38.8825 12.2571C38.1145 17.5979 36.8935 18.5692 32.3705 18.5692C28.3874 18.5692 26.4835 17.7243 27.2217 12.5944L27.8107 8.49991C28.5638 3.26457 30.9723 2.48291 34.6851 2.48291C37.9591 2.48291 40.1824 3.22154 39.5627 7.52768H36.1369ZM48.327 14.747C48.0873 16.414 47.5115 17.3643 46.6724 17.9132C45.8368 18.441 44.7388 18.5675 43.4555 18.5675C39.9621 18.5675 39.3363 17.0481 39.9323 12.9097C40.5458 8.64658 41.5254 7.2317 45.0872 7.2317C48.4121 7.2317 49.2407 8.39277 48.5903 12.9097L48.5016 13.5218H42.7463C42.4663 15.4646 42.6208 16.0337 43.8198 16.0337C44.7142 16.0337 45.3058 15.9072 45.4734 14.7461H48.327V14.747ZM45.8886 11.5176C46.1265 9.87089 45.6507 9.76549 44.6729 9.76549C43.6433 9.76549 43.28 10.0615 43.0368 11.5176H45.8886ZM52.1829 18.4419H49.2802L50.875 7.35905H53.7777L53.4802 9.42737H53.5987C54.2728 7.67523 55.197 7.2317 56.5646 7.2317C58.5219 7.2317 59.2496 8.39276 58.9064 10.7781L57.803 18.441H54.9004L55.8817 11.6221C56.0195 10.5454 55.8597 10.0176 54.9144 10.0176C53.6153 10.0176 53.2555 10.9889 53.0615 12.3406L52.1829 18.4419ZM68.4606 14.747C68.2209 16.414 67.6443 17.3643 66.806 17.9132C65.9704 18.441 64.8724 18.5675 63.5891 18.5675C60.0957 18.5675 59.4699 17.0481 60.0659 12.9097C60.6794 8.64658 61.659 7.2317 65.2208 7.2317C68.5457 7.2317 69.3743 8.39277 68.7239 12.9097L68.6361 13.5218H62.8808C62.6017 15.4646 62.7553 16.0337 63.9542 16.0337C64.8487 16.0337 65.4403 15.9072 65.6079 14.7461H68.4606V14.747ZM66.0222 11.5176C66.2592 9.87089 65.7843 9.76549 64.8056 9.76549C63.7761 9.76549 63.4127 10.0615 63.1695 11.5176H66.0222ZM72.2656 18.4419H69.3629L70.9577 7.35905H73.7761L73.5418 8.98472H73.6594C74.2299 7.71826 75.0594 7.23258 76.1399 7.23258C78.1657 7.23258 78.0367 9.30089 77.7444 11.3271L77.6198 12.193H75.0041L75.0796 11.6643C75.1919 10.8835 75.3499 10.0176 74.5565 10.0176C73.6787 10.0176 73.3513 10.8835 73.2214 11.7917L72.2656 18.4419ZM83.591 16.7951C83.1539 18.3154 81.8004 18.5692 80.7875 18.5692C78.7617 18.5692 77.6689 17.9571 78.0762 15.1282C78.4589 12.4688 79.6912 11.645 81.7838 11.645C82.6106 11.645 83.8807 11.6239 84.0176 12.8904H84.1528L84.4047 11.1382C84.5539 10.1036 84.5969 9.4502 83.3312 9.4502C82.6053 9.4502 82.1199 9.66098 81.9769 10.6534H79.0742C79.5692 7.21238 81.5749 7.23346 83.6507 7.23346C86.6219 7.23346 87.8024 7.69806 87.2538 11.5185L86.2559 18.4428H83.354L83.692 16.796H83.591V16.7951ZM82.4272 13.8609C81.7179 13.8609 81.1395 14.0084 80.9938 15.0219C80.8209 16.2251 81.6477 16.2251 82.0866 16.2251C83.3005 16.2251 83.6999 16.0346 83.8666 14.8744C84.0001 13.9443 83.3716 13.8609 82.4272 13.8609ZM91.0825 18.4419H88.1799L90.4585 2.60938H93.3603L91.0825 18.4419ZM103.952 8.96364H109.352L108.931 11.897H103.53L103.086 14.9798H108.959L108.461 18.4419H99.2113L101.49 2.60938H110.622L110.123 6.07151H104.368L103.952 8.96364ZM113.473 18.4419H110.571L112.85 2.60938H115.751L113.473 18.4419ZM124.145 14.747C123.906 16.414 123.331 17.3643 122.492 17.9132C121.656 18.441 120.559 18.5675 119.275 18.5675C115.781 18.5675 115.157 17.0481 115.751 12.9097C116.365 8.64658 117.345 7.2317 120.906 7.2317C124.232 7.2317 125.06 8.39277 124.41 12.9097L124.321 13.5218H118.565C118.286 15.4646 118.44 16.0337 119.639 16.0337C120.534 16.0337 121.125 15.9072 121.293 14.7461H124.145V14.747ZM121.707 11.5176C121.944 9.87089 121.47 9.76549 120.491 9.76549C119.461 9.76549 119.097 10.0615 118.854 11.5176H121.707ZM133.821 14.0084C133.524 16.0767 133.017 17.1333 132.236 17.7454C131.47 18.3787 130.448 18.5692 128.878 18.5692C125.451 18.5692 124.827 17.2808 125.457 12.9114C125.996 9.15422 126.881 7.23346 130.511 7.23346C133.058 7.23346 134.733 7.67698 134.181 11.5185H131.277C131.38 10.9274 131.38 10.5682 131.212 10.3364C131.043 10.1036 130.717 10.0193 130.109 10.0193C129.079 10.0193 128.724 10.3785 128.359 12.9114C127.985 15.5085 128.183 15.7834 129.28 15.7834C130.597 15.7834 130.722 15.382 130.919 14.0093H133.821V14.0084ZM142.328 10.0184H138.968L138.255 14.9798C138.178 15.6341 138.239 15.909 138.78 15.909C139.539 15.909 139.603 15.2327 139.745 14.473L139.848 13.8819H142.161L142.017 14.8744C141.583 17.893 140.592 18.5684 138.229 18.5684C136.372 18.5684 134.879 18.2724 135.28 15.4856L136.067 10.0176H134.987L135.37 7.35817H136.449L136.787 5.01496H139.69L139.354 7.35817H142.712L142.328 10.0184ZM145.535 18.4419H142.63L144.226 7.35905H147.045L146.809 8.98472H146.928C147.498 7.71826 148.329 7.23258 149.408 7.23258C151.433 7.23258 151.304 9.30089 151.013 11.3271L150.887 12.193H148.272L148.349 11.6643C148.46 10.8835 148.618 10.0176 147.826 10.0176C146.948 10.0176 146.621 10.8835 146.491 11.7917L145.535 18.4419ZM153.787 18.4419H150.9L152.494 7.35905H155.381L153.787 18.4419ZM155.665 5.39612H152.778L153.179 2.60938H156.066L155.665 5.39612ZM164.194 14.0084C163.897 16.0767 163.39 17.1333 162.61 17.7454C161.843 18.3787 160.822 18.5692 159.251 18.5692C155.825 18.5692 155.201 17.2808 155.83 12.9114C156.37 9.15422 157.254 7.23346 160.884 7.23346C163.431 7.23346 165.107 7.67698 164.555 11.5185H161.65C161.753 10.9274 161.753 10.5682 161.585 10.3364C161.416 10.1036 161.09 10.0193 160.483 10.0193C159.452 10.0193 159.098 10.3785 158.733 12.9114C158.359 15.5085 158.556 15.7834 159.653 15.7834C160.97 15.7834 161.095 15.382 161.292 14.0093H164.194V14.0084Z" fill="#D4D4D4"/>
</svg>
