<svg width="71" height="77" viewBox="0 0 71 77" fill="none" xmlns="http://www.w3.org/2000/svg">
<path fill-rule="evenodd" clip-rule="evenodd" d="M15.902 48.4162C7.44363 48.4162 0.522949 41.4957 0.522949 33.0374C0.522949 25.5238 6.03613 19.0577 13.4492 17.8563C13.4484 17.7904 13.4467 17.7245 13.4467 17.6585C13.4469 8.12064 21.1788 0.388672 30.7167 0.388672C36.4474 0.388672 41.5252 3.18067 44.6667 7.478C46.1575 6.45917 47.9601 5.86297 49.9023 5.86297C55.0339 5.86297 59.1937 10.023 59.1937 15.1544C59.1937 16.1814 59.0266 17.1695 58.719 18.0932C65.4451 19.7324 70.4768 25.8253 70.4768 33.0374C70.4768 41.4958 63.5563 48.4164 55.0978 48.4164H15.902V48.4162Z" fill="#4294FF"/>
<path fill-rule="evenodd" clip-rule="evenodd" d="M18.2285 25.5545C17.7465 26.0366 16.965 26.0366 16.4831 25.5545C16.0011 25.0725 16.0011 24.291 16.4831 23.8091C21.7344 18.5578 28.6172 15.9321 35.4997 15.9321C42.3823 15.9321 49.265 18.558 54.5164 23.8091C54.9984 24.2912 54.9984 25.0727 54.5164 25.5547C54.0343 26.0367 53.2528 26.0367 52.7709 25.5547C48.0016 20.7854 41.7508 18.4009 35.4997 18.4009C29.2487 18.4007 22.9977 20.7852 18.2285 25.5545ZM27.9052 35.2313C27.4232 35.7133 26.6417 35.7133 26.1598 35.2313C25.6778 34.7492 25.6778 33.9677 26.1598 33.4859C28.7391 30.9066 32.1194 29.617 35.4997 29.617C38.8801 29.617 42.2606 30.9068 44.8396 33.4859C45.3216 33.9679 45.3216 34.7494 44.8396 35.2313C44.3576 35.7133 43.5761 35.7133 43.0942 35.2313C40.9972 33.1342 38.2485 32.0856 35.4997 32.0856C32.7511 32.0856 30.0023 33.1342 27.9052 35.2313ZM23.0669 30.3928C26.5001 26.9597 31 25.2432 35.4997 25.2432C39.9995 25.2432 44.4994 26.9597 47.9325 30.3928C48.4145 30.8749 49.196 30.8749 49.6779 30.3928C50.1599 29.9108 50.1599 29.1293 49.6779 28.6474C45.7626 24.7321 40.631 22.7744 35.4996 22.7744C30.3681 22.7744 25.2365 24.7321 21.3212 28.6474C20.8392 29.1294 20.8392 29.911 21.3212 30.3928C21.8034 30.8749 22.5849 30.8749 23.0669 30.3928Z" fill="#FFE600"/>
<path fill-rule="evenodd" clip-rule="evenodd" d="M35.5 39.1819C49.2804 39.1819 60.4517 50.3531 60.4517 64.1334C60.4517 68.6791 59.2355 72.9405 57.1116 76.6111L49.443 72.1835C50.8132 69.8154 51.5978 67.0661 51.5978 64.1332C51.5978 55.2426 44.3906 48.0354 35.5 48.0354C26.6093 48.0354 19.4022 55.2426 19.4022 64.1332C19.4022 67.0658 20.1866 69.8151 21.5568 72.1831L13.8882 76.6106C11.7644 72.9402 10.5483 68.6788 10.5483 64.1332C10.5483 50.3531 21.7196 39.1819 35.5 39.1819Z" fill="#FFBC85"/>
<path fill-rule="evenodd" clip-rule="evenodd" d="M13.8876 51.6558C11.7639 55.3263 10.5483 59.588 10.5483 64.1336H19.4022C19.4022 61.2009 20.1865 58.4515 21.5565 56.0833C19.0001 54.6075 16.4439 53.1316 13.8876 51.6558Z" fill="#F5A96C"/>
<path fill-rule="evenodd" clip-rule="evenodd" d="M13.8877 51.6558C16.4439 53.1316 19.0002 54.6075 21.5566 56.0833C22.9699 53.6405 25.0069 51.6035 27.4498 50.1901C27.1085 49.5988 26.767 49.0076 26.4256 48.4162C25.291 46.4512 24.1566 44.4862 23.0221 42.5212C20.3756 44.0525 18.0366 46.0559 16.1199 48.4162C15.2944 49.4328 14.5473 50.5158 13.8877 51.6558Z" fill="#FFE600"/>
<path fill-rule="evenodd" clip-rule="evenodd" d="M23.022 42.5212C24.1565 44.4861 25.2909 46.4511 26.4255 48.4161C26.7668 49.0074 27.1082 49.5988 27.4497 50.19C28.8487 49.3806 30.3807 48.7758 32.005 48.4161C33.1303 48.1671 34.2997 48.0356 35.5 48.0356C35.5 45.0844 35.5 42.1331 35.5 39.1819C30.9544 39.1819 26.6925 40.3974 23.022 42.5212Z" fill="#F9CE00"/>
<path fill-rule="evenodd" clip-rule="evenodd" d="M35.5 39.1819V48.0356C36.7003 48.0356 37.8697 48.1669 38.995 48.4161C40.6193 48.7756 42.1514 49.3806 43.5503 50.19C43.8917 49.5988 44.2331 49.0074 44.5745 48.4161C45.7091 46.4511 46.8434 44.4861 47.978 42.5212C44.3073 40.3974 40.0456 39.1819 35.5 39.1819Z" fill="#22C269"/>
<path fill-rule="evenodd" clip-rule="evenodd" d="M47.978 42.5212C46.8434 44.4862 45.7091 46.4512 44.5745 48.4162C44.2331 49.0074 43.8918 49.5988 43.5503 50.1901C45.9931 51.6035 48.0301 53.6405 49.4435 56.0833C51.9997 54.6075 54.556 53.1316 57.1124 51.6558C56.4528 50.5158 55.7056 49.433 54.8802 48.4162C52.9635 46.0559 50.6245 44.0525 47.978 42.5212Z" fill="#1CB15F"/>
<path fill-rule="evenodd" clip-rule="evenodd" d="M57.1122 51.6558C54.556 53.1316 51.9998 54.6075 49.4434 56.0833C50.8135 58.4515 51.5977 61.2009 51.5977 64.1336H60.4514C60.4515 59.588 59.236 55.3262 57.1122 51.6558Z" fill="#EB3B48"/>
<path fill-rule="evenodd" clip-rule="evenodd" d="M60.4513 64.1335C57.5001 64.1335 54.5489 64.1335 51.5976 64.1335C51.5976 67.0664 50.8129 69.8157 49.4429 72.1838L57.1114 76.6114C59.2352 72.9407 60.4513 68.6793 60.4513 64.1335Z" fill="#EE0033"/>
<path fill-rule="evenodd" clip-rule="evenodd" d="M44.1332 57.7273C44.7217 57.3865 45.4751 57.5872 45.816 58.1757C46.1568 58.7642 45.9561 59.5176 45.3676 59.8585L36.1173 65.1991C35.5289 65.54 34.7754 65.3392 34.4346 64.7507C34.0937 64.1623 34.2945 63.4088 34.883 63.068L44.1332 57.7273Z" fill="#96ABBC"/>
<path d="M37.638 66.28C38.8251 65.0929 38.8251 63.1683 37.638 61.9813C36.451 60.7942 34.5264 60.7942 33.3393 61.9813C32.1522 63.1683 32.1522 65.0929 33.3393 66.28C34.5264 67.467 36.451 67.467 37.638 66.28Z" fill="#004960"/>
</svg>
