<svg width="79" height="79" viewBox="0 0 79 79" fill="none" xmlns="http://www.w3.org/2000/svg">
<path fill-rule="evenodd" clip-rule="evenodd" d="M19.3062 73.2747H9.61376C8.87021 73.2747 8.271 72.6711 8.271 71.9319V57.4546C8.271 56.7154 8.87021 56.1118 9.61376 56.1118H19.3062C20.0497 56.1118 20.6489 56.7154 20.6489 57.4546V71.9319C20.6489 72.6711 20.0497 73.2747 19.3062 73.2747Z" fill="#FF3131"/>
<path fill-rule="evenodd" clip-rule="evenodd" d="M36.001 73.2747H26.3042C25.565 73.2747 24.9658 72.6711 24.9658 71.9319V48.4751C24.9658 47.7315 25.565 47.1323 26.3042 47.1323H36.001C36.7445 47.1323 37.3437 47.7315 37.3437 48.4751V71.9319C37.3437 72.6711 36.7445 73.2747 36.001 73.2747Z" fill="#8F46DA"/>
<path fill-rule="evenodd" clip-rule="evenodd" d="M52.6958 73.2746H42.999C42.2598 73.2746 41.6562 72.671 41.6562 71.9319V41.197C41.6562 40.4578 42.2598 39.8542 42.999 39.8542H52.6958C53.435 39.8542 54.0385 40.4578 54.0385 41.197V71.9319C54.0385 72.671 53.435 73.2746 52.6958 73.2746Z" fill="#1AA1FF"/>
<path fill-rule="evenodd" clip-rule="evenodd" d="M69.3906 73.2746H59.6938C58.9503 73.2746 58.3511 72.671 58.3511 71.9318V34.2295C58.3511 33.4903 58.9503 32.8867 59.6938 32.8867H69.3906C70.1298 32.8867 70.729 33.4903 70.729 34.2295V71.9318C70.729 72.671 70.1298 73.2746 69.3906 73.2746Z" fill="#7DD63E"/>
<path fill-rule="evenodd" clip-rule="evenodd" d="M44.5433 18.1995C44.3421 18.1995 44.1453 18.1557 43.9616 18.0683L39.5003 15.9207L35.0433 18.0683C34.5972 18.2826 34.0724 18.2345 33.67 17.9414C33.272 17.6528 33.062 17.1673 33.1276 16.6774L33.7924 11.7743L30.3721 8.19654C30.0309 7.83789 29.9129 7.32178 30.0659 6.85378C30.219 6.38578 30.617 6.03588 31.1025 5.9484L35.975 5.06489L38.3193 0.708559C38.5512 0.271177 39.006 0 39.5003 0C39.9945 0 40.4494 0.271177 40.6812 0.708559L43.0256 5.06489L47.898 5.9484C48.3835 6.03588 48.7815 6.38578 48.9346 6.85378C49.0877 7.32178 48.9696 7.83789 48.6284 8.19654L45.2081 11.7743L45.8729 16.6774C45.9385 17.1673 45.7286 17.6528 45.3306 17.9414C45.0988 18.112 44.8188 18.1995 44.5433 18.1995Z" fill="#FFA721"/>
<path fill-rule="evenodd" clip-rule="evenodd" d="M20.5089 22.8532C20.3121 22.8532 20.1109 22.8095 19.9272 22.722L13.9526 19.844L7.9823 22.722C7.53617 22.9363 7.01131 22.8882 6.61329 22.5995C6.2109 22.3065 6.00533 21.821 6.07094 21.3311L6.9632 14.766L2.37943 9.97232C2.03827 9.61804 1.92018 9.10193 2.07326 8.63393C2.22635 8.16156 2.62436 7.81602 3.10986 7.72417L9.63123 6.54324L12.7716 0.708559C13.0078 0.271177 13.4627 0 13.9569 0C14.4468 0 14.9017 0.271177 15.1379 0.708559L18.2783 6.54324L24.7996 7.72417C25.2851 7.81602 25.6832 8.16156 25.8362 8.63393C25.9893 9.10193 25.8712 9.61804 25.5301 9.97232L20.9463 14.766L21.8386 21.3311C21.9042 21.821 21.6986 22.3065 21.2962 22.5995C21.0644 22.7701 20.7889 22.8532 20.5089 22.8532Z" fill="#FFA721"/>
<path fill-rule="evenodd" clip-rule="evenodd" d="M58.4914 22.8532C58.2159 22.8532 57.936 22.7701 57.7041 22.5995C57.3061 22.3065 57.0962 21.821 57.1618 21.3311L58.0541 14.766L53.4703 9.97232C53.1291 9.61804 53.0154 9.10193 53.1641 8.63393C53.3172 8.16156 53.7152 7.81602 54.2007 7.72417L60.7265 6.54324L63.8669 0.704186C64.0987 0.271177 64.5536 0 65.0478 0C65.542 0 65.9925 0.271177 66.2287 0.704186L69.3691 6.54324L75.8905 7.72417C76.376 7.81602 76.774 8.16156 76.9271 8.63393C77.0802 9.10193 76.9621 9.61804 76.6209 9.97232L72.0415 14.766L72.9294 21.3311C72.995 21.821 72.7895 22.3065 72.3914 22.5995C71.9891 22.8882 71.4642 22.9363 71.0181 22.722L65.0478 19.844L59.0775 22.722C58.8895 22.8095 58.6926 22.8532 58.4914 22.8532Z" fill="#FFA721"/>
<path fill-rule="evenodd" clip-rule="evenodd" d="M14.2239 49.4329C7.48821 49.4329 2.00781 43.9525 2.00781 37.2168C2.00781 30.4811 7.48821 25.0007 14.2239 25.0007C20.9596 25.0007 26.4356 30.4811 26.4356 37.2168C26.4356 43.9525 20.9596 49.4329 14.2239 49.4329Z" fill="#FFA721"/>
<path fill-rule="evenodd" clip-rule="evenodd" d="M17.0973 4.34758L15.1379 0.708559C14.9017 0.271177 14.4468 0 13.9569 0C13.4627 0 13.0078 0.271177 12.7716 0.708559L9.63123 6.54324L3.10986 7.72417C2.62436 7.81602 2.22635 8.16155 2.07326 8.63393C1.92018 9.10193 2.03827 9.61804 2.37943 9.97232L5.25741 12.9815C5.25741 12.9815 5.25741 12.9815 5.25741 12.9771C5.41049 12.5091 5.80851 12.1636 6.294 12.0718L12.8154 10.8908L15.9558 5.05177C16.1832 4.63188 16.6162 4.3607 17.0973 4.34758Z" fill="#FF961E"/>
<path fill-rule="evenodd" clip-rule="evenodd" d="M42.6407 4.34758L40.6812 0.708559C40.4494 0.271177 39.9945 0 39.5003 0C39.006 0 38.5512 0.271177 38.3193 0.708559L35.975 5.06489L31.1025 5.9484C30.617 6.03588 30.219 6.38578 30.0659 6.85378C29.9129 7.32178 30.0309 7.83789 30.3721 8.19654L33.2501 11.2014C33.4032 10.7334 33.8012 10.3835 34.2867 10.296L39.1547 9.41247L41.5035 5.05177C41.7309 4.63188 42.1639 4.36508 42.6407 4.34758Z" fill="#FF961E"/>
<path fill-rule="evenodd" clip-rule="evenodd" d="M68.1882 4.34758L66.2287 0.704186C65.9925 0.271177 65.542 0 65.0478 0C64.5536 0 64.0987 0.271177 63.8669 0.704186L60.7265 6.54324L54.2007 7.72417C53.7152 7.81602 53.3172 8.16155 53.1641 8.63393C53.0154 9.10193 53.1291 9.61804 53.4703 9.97232L56.3483 12.9815C56.3483 12.9815 56.3483 12.9815 56.3483 12.9771C56.5013 12.5091 56.8994 12.1636 57.3849 12.0718L63.9062 10.8908L67.0466 5.05177C67.2741 4.63188 67.7115 4.3607 68.1882 4.34758Z" fill="#FF961E"/>
<path fill-rule="evenodd" clip-rule="evenodd" d="M14.2239 47.2722C8.67787 47.2722 4.16846 42.7628 4.16846 37.2168C4.16846 31.6708 8.67787 27.1614 14.2239 27.1614C19.7699 27.1614 24.2793 31.6708 24.2793 37.2168C24.2793 42.7628 19.7699 47.2722 14.2239 47.2722Z" fill="#FF961E"/>
<path fill-rule="evenodd" clip-rule="evenodd" d="M14.2237 44.9323C13.4801 44.9323 12.8809 44.3331 12.8809 43.5896V43.279H11.8618C11.1227 43.279 10.5234 42.6754 10.5234 41.9362C10.5234 41.1927 11.1227 40.5935 11.8618 40.5935H15.2384V38.5597H11.8618C11.1227 38.5597 10.5234 37.9604 10.5234 37.2169V32.4975C10.5234 31.7584 11.1227 31.1591 11.8618 31.1591H12.8809V30.8442C12.8809 30.1051 13.4801 29.5015 14.2237 29.5015C14.9629 29.5015 15.5665 30.1051 15.5665 30.8442V31.1591H16.5812C17.3247 31.1591 17.9239 31.7584 17.9239 32.4975C17.9239 33.2411 17.3247 33.8403 16.5812 33.8403H13.2046V35.8741H16.5812C17.3247 35.8741 17.9239 36.4777 17.9239 37.2169V41.9362C17.9239 42.6754 17.3247 43.279 16.5812 43.279H15.5665V43.5896C15.5665 44.3331 14.9629 44.9323 14.2237 44.9323Z" fill="white"/>
<path fill-rule="evenodd" clip-rule="evenodd" d="M75.6499 79H3.35058C2.60703 79 2.00781 78.4008 2.00781 77.6572V71.9319C2.00781 71.1883 2.60703 70.5891 3.35058 70.5891H75.6499C76.3934 70.5891 76.9926 71.1883 76.9926 71.9319V77.6572C76.9926 78.4008 76.3934 79 75.6499 79Z" fill="#333333"/>
</svg>
