<svg width="124" height="20" viewBox="0 0 124 20" fill="none" xmlns="http://www.w3.org/2000/svg">
<g clip-path="url(#clip0_30_231)">
<path d="M50.0285 0.269894H47.0884C46.8327 0.269894 46.6262 0.476393 46.6262 0.73206V14.1545C45.0922 12.4139 34.9244 0.889393 34.6689 0.61406C34.3935 0.31906 34.0297 0.269894 33.7839 0.269894H30.8732C30.6077 0.269894 30.411 0.476393 30.411 0.73206V19.2679C30.411 19.5235 30.6077 19.73 30.8732 19.73H33.8232C34.069 19.73 34.2854 19.5235 34.2854 19.2679V5.73722C35.3965 6.99603 46.0854 19.1105 46.351 19.3859C46.6263 19.6812 46.9902 19.73 47.236 19.73H50.0385C50.2942 19.73 50.5007 19.5235 50.5007 19.2679V0.73206C50.4907 0.476393 50.2842 0.269894 50.0285 0.269894ZM26.2712 0.269894H22.9967C22.7311 0.269894 22.5247 0.476393 22.5247 0.73206V19.2679C22.5247 19.5235 22.7312 19.73 22.9967 19.73H26.2712C26.5269 19.73 26.7334 19.5235 26.7334 19.2679V0.73206C26.7334 0.476393 26.5269 0.269894 26.2712 0.269894ZM15.2284 9.90655C15.2284 10.1621 15.0219 10.3687 14.7662 10.3687H4.82472V3.69189H14.7761C15.0317 3.69189 15.2382 3.90823 15.2382 4.16375V9.90655H15.2284ZM13.0257 0.269894H1.03889C0.783228 0.269894 0.566895 0.476393 0.566895 0.73206V19.2679C0.566895 19.5235 0.773535 19.73 1.03889 19.73H4.35273C4.60839 19.73 4.81489 19.5235 4.81489 19.2679V13.7907H13.0159C16.6837 13.7907 19.6632 11.6277 19.6632 8.35289V6.17972C19.673 2.91506 16.6935 0.269894 13.0257 0.269894ZM123.238 0.269894H120.297C120.237 0.269839 120.177 0.281755 120.121 0.304962C120.064 0.328168 120.013 0.362209 119.971 0.405136C119.928 0.448063 119.894 0.499034 119.87 0.555131C119.847 0.611229 119.835 0.671352 119.835 0.73206V14.1545C118.301 12.4139 108.134 0.889393 107.878 0.61406C107.603 0.31906 107.239 0.269894 106.993 0.269894H104.082C103.827 0.269894 103.61 0.476393 103.61 0.73206V19.2679C103.61 19.5235 103.827 19.73 104.082 19.73H107.023C107.278 19.73 107.494 19.5235 107.494 19.2679V5.73722C108.596 6.99603 119.285 19.1105 119.55 19.3859C119.825 19.6812 120.189 19.73 120.435 19.73H123.248C123.503 19.73 123.719 19.5235 123.719 19.2679V0.73206C123.71 0.476393 123.493 0.269894 123.238 0.269894ZM67.05 0.00439453H60.275C56.5972 0.00439453 53.6177 2.64956 53.6177 5.92405V14.0759C53.6177 17.3405 56.5972 19.9957 60.275 19.9957H67.05C70.7277 19.9957 73.717 17.3408 73.717 14.0759V8.85439H63.4118V11.5979C63.4118 11.8634 63.6281 12.0696 63.8837 12.0696H69.5182V15.8554C69.5182 16.1111 69.3117 16.3176 69.056 16.3176H58.2688C58.0033 16.3176 57.797 16.1111 57.797 15.8554V4.16389C57.7971 4.03877 57.8468 3.91879 57.9353 3.83032C58.0238 3.74184 58.1437 3.69211 58.2688 3.69203H69.056C69.3216 3.69203 69.5182 3.90836 69.5182 4.16389V6.3962C69.5182 6.65186 69.7248 6.85836 69.99 6.85836H73.245C73.5005 6.85836 73.7169 6.65186 73.7169 6.3962V5.9242C73.717 2.64956 70.7278 0.00439453 67.05 0.00439453ZM92.4691 0.781227C92.292 0.456587 91.9972 0.240254 91.6233 0.240254H88.7225C88.3587 0.240254 88.0638 0.456587 87.8767 0.781227L78.7219 18.8057C78.417 19.3957 78.6827 19.7399 79.2234 19.7399H82.1241C82.5567 19.7399 82.7042 19.6316 82.9206 19.2284L90.1677 4.71456L97.4247 19.2187C97.6411 19.6217 97.7983 19.73 98.2212 19.73H101.112C101.663 19.73 101.918 19.3859 101.614 18.796L92.4691 0.781227Z" fill="#D4D4D4"/>
<path d="M92.6758 13.9087H87.6707C87.4151 13.9087 87.2085 14.125 87.2085 14.3806V19.2677C87.2085 19.5234 87.4151 19.7397 87.6707 19.7397H92.6758C92.9313 19.7397 93.138 19.5331 93.138 19.2677V14.3806C93.138 14.125 92.9217 13.9087 92.6758 13.9087Z" fill="#D4D4D4"/>
</g>
<defs>
<clipPath id="clip0_30_231">
<rect width="123.153" height="20" fill="white" transform="translate(0.566895)"/>
</clipPath>
</defs>
</svg>
