<svg width="79" height="79" viewBox="0 0 79 79" fill="none" xmlns="http://www.w3.org/2000/svg">
<path d="M77.1603 27.5435C75.9768 23.8111 74.2441 20.2839 72.0099 17.056C71.7229 16.6394 71.2476 16.3894 70.74 16.3894C70.4268 16.3894 70.1228 16.4851 69.8636 16.6641C69.1646 17.1486 68.9887 18.1114 69.4732 18.8119C73.6871 24.9066 75.9166 32.0613 75.9166 39.5C75.9166 48.6577 72.5558 57.3014 66.4201 64.0239C65.4134 63.0195 64.2382 62.209 62.9525 61.6325C68.5721 55.6742 71.7506 47.7467 71.7506 39.5C71.7506 21.7184 57.2842 7.25195 39.5026 7.25195C21.721 7.25195 7.25454 21.7184 7.25454 39.5C7.25454 47.7469 10.4331 55.6743 16.0527 61.6325C14.7669 62.209 13.5918 63.0195 12.585 64.0239C6.44927 57.3015 3.08853 48.6591 3.08853 39.5C3.08853 29.7747 6.87652 20.631 13.7535 13.7509C20.6336 6.87393 29.7788 3.08594 39.5026 3.08594C46.8965 3.08594 54.0158 5.29084 60.0873 9.4584C60.3466 9.63584 60.6474 9.72996 60.9591 9.72996C61.4698 9.72996 61.9451 9.47846 62.2336 9.06031C62.4666 8.72086 62.553 8.31043 62.4789 7.90463C62.4033 7.49883 62.175 7.14857 61.834 6.91404C58.6184 4.70605 55.1051 2.99182 51.3958 1.82225C47.5615 0.612559 43.5621 0 39.5072 0H39.5026C36.8225 0 34.1439 0.27002 31.5424 0.802344C16.394 3.90171 3.92173 16.3356 0.804933 31.5398C-1.74421 43.9746 2.0066 57.2449 10.679 66.5043C10.267 67.2148 9.92018 67.9755 9.65154 68.7811L6.8006 76.9486C6.63597 77.4205 6.71003 77.9429 6.99934 78.3504C7.28864 78.7579 7.75755 79 8.25732 79H70.7476C71.2473 79 71.7162 78.7579 72.0055 78.3504C72.2948 77.9429 72.3689 77.4205 72.2043 76.9486L69.3533 68.7811C69.0847 67.9755 68.7377 67.2148 68.3259 66.5043C69.7625 64.9704 71.0827 63.322 72.2564 61.5845C78.9456 51.6827 80.7701 38.9291 77.1603 27.5435ZM10.3405 39.5C10.3405 23.42 23.4225 10.3379 39.5026 10.3379C55.5826 10.3379 68.6647 23.42 68.6647 39.5C68.6647 47.5207 65.3401 55.2074 59.5198 60.7041C59.1264 60.6623 58.7286 60.6387 58.3268 60.6387H52.853C55.7073 58.8356 58.1762 56.4659 60.1179 53.6401C62.9838 49.4688 64.4987 44.5793 64.4987 39.5C64.4987 25.7171 53.2855 14.5039 39.5026 14.5039C25.7197 14.5039 14.5065 25.7171 14.5065 39.5C14.5065 44.5791 16.0214 49.4687 18.8873 53.6401C20.8288 56.4659 23.2979 58.8357 26.1522 60.6387H20.6784C20.2766 60.6387 19.8788 60.6623 19.4853 60.7041C13.6651 55.2074 10.3405 47.5207 10.3405 39.5ZM54.1608 35.4664C54.1608 40.4253 52.3939 45.9208 49.4347 50.1667C46.5047 54.3704 42.8846 56.7812 39.5026 56.7812C36.1206 56.7812 32.5004 54.3704 29.5705 50.1669C26.856 46.2721 25.1459 41.3264 24.8814 36.7074C28.2246 35.7904 37.1014 33.037 43.2205 28.2121C45.009 30.1985 48.9473 33.8552 54.14 34.4926C54.1535 34.8148 54.1608 35.1394 54.1608 35.4664ZM39.5026 59.8672C41.7132 59.8672 43.9584 59.1386 46.0908 57.7758L46.7424 61.3952L39.5026 65.6391L32.2628 61.3952L32.9144 57.7758C35.0468 59.1386 37.292 59.8672 39.5026 59.8672ZM48.836 55.6078C49.9415 54.5572 50.9934 53.3272 51.9662 51.9314C55.322 47.1167 57.2467 41.1155 57.2467 35.4665C57.2467 30.7233 55.977 26.3951 53.8092 22.9189C58.4629 26.9398 61.4127 32.8819 61.4127 39.5002C61.4127 47.837 56.7757 55.306 49.4516 59.0267L48.836 55.6078ZM53.7778 31.3107C48.4726 30.2496 44.7058 25.1812 44.6655 25.1263C44.4088 24.7728 44.0142 24.5448 43.5799 24.4986C43.1458 24.4528 42.712 24.5928 42.3867 24.8845C37.2508 29.4928 28.7774 32.3548 24.9308 33.4815C25.7168 24.4249 31.8342 17.5898 39.5026 17.5898C46.5452 17.5898 52.2796 23.3547 53.7778 31.3107ZM21.7585 35.4664C21.7585 41.1153 23.6831 47.1166 27.039 51.9312C28.0118 53.327 29.0636 54.5572 30.1692 55.6077L29.5537 59.0264C22.2297 55.3057 17.5926 47.8367 17.5926 39.4998C17.5926 32.8816 20.5424 26.9395 25.1962 22.9186C23.0282 26.3951 21.7585 30.7231 21.7585 35.4664ZM36.6391 67.5378L34.0679 69.3233L29.1966 64.9702L30.6145 64.0061L36.6391 67.5378ZM48.3907 64.0061L49.8085 64.9702L44.9372 69.3233L42.366 67.5378L48.3907 64.0061ZM12.5687 69.7877C12.5711 69.7805 12.5736 69.7732 12.5761 69.7659C13.7774 66.1525 17.0336 63.7246 20.6784 63.7246H25.5969C25.3403 63.9857 25.1811 64.331 25.1564 64.7029C25.1251 65.1768 25.3138 65.6387 25.6679 65.9553L32.9198 72.4357C33.2108 72.6959 33.5787 72.8281 33.9482 72.8281C34.2546 72.8281 34.5622 72.7371 34.828 72.5526L37.9596 70.3779V75.9141H21.9127V72.8281C21.9127 71.9759 21.222 71.2852 20.3698 71.2852C19.5176 71.2852 18.8268 71.9759 18.8268 72.8281V75.9141H10.4303L12.5687 69.7877ZM60.1784 75.9141V72.8281C60.1784 71.9759 59.4876 71.2852 58.6354 71.2852C57.7832 71.2852 57.0924 71.9759 57.0924 72.8281V75.9141H41.0456V70.3779L44.1772 72.5526C44.4432 72.7372 44.7505 72.8281 45.057 72.8281C45.4265 72.8281 45.7944 72.6957 46.0854 72.4357L53.3373 65.9553C53.6914 65.6388 53.8801 65.1768 53.8488 64.7029C53.8243 64.3311 53.6649 63.9857 53.4083 63.7246H58.3268C61.9716 63.7246 65.2277 66.1525 66.4291 69.7661C66.4316 69.7734 66.434 69.7806 66.4365 69.7879L68.5747 75.9141H60.1784Z" fill="black"/>
<path d="M42.3734 48.5913C42.3606 48.6007 41.0192 49.5294 39.5024 49.5294C37.9673 49.5294 36.6376 48.5958 36.6314 48.5913C35.943 48.0892 34.9777 48.2404 34.4756 48.9287C33.9735 49.6172 34.1246 50.5825 34.8131 51.0846C35.028 51.2412 36.9846 52.6152 39.5026 52.6152C42.0206 52.6152 43.9772 51.2412 44.1921 51.0846C44.8806 50.5825 45.0317 49.6172 44.5296 48.9287C44.0272 48.2404 43.0621 48.0894 42.3734 48.5913Z" fill="black"/>
<path d="M45.3657 40.2715C46.2179 40.2715 46.9087 39.5807 46.9087 38.7285C46.9087 37.8764 46.2179 37.1855 45.3657 37.1855C44.5136 37.1855 43.8228 37.8764 43.8228 38.7285C43.8228 39.5807 44.5136 40.2715 45.3657 40.2715Z" fill="black"/>
<path d="M33.6392 40.2715C34.4913 40.2715 35.1821 39.5807 35.1821 38.7285C35.1821 37.8764 34.4913 37.1855 33.6392 37.1855C32.787 37.1855 32.0962 37.8764 32.0962 38.7285C32.0962 39.5807 32.787 40.2715 33.6392 40.2715Z" fill="black"/>
<path d="M39.5024 45.5176C40.3546 45.5176 41.0454 44.8268 41.0454 43.9746V41.8145C41.0454 40.9623 40.3546 40.2715 39.5024 40.2715C38.6503 40.2715 37.9595 40.9623 37.9595 41.8145V43.9746C37.9595 44.8268 38.6503 45.5176 39.5024 45.5176Z" fill="black"/>
<path d="M66.2954 14.1567C67.1476 14.1567 67.8384 13.4659 67.8384 12.6138C67.8384 11.7616 67.1476 11.0708 66.2954 11.0708C65.4433 11.0708 64.7524 11.7616 64.7524 12.6138C64.7524 13.4659 65.4433 14.1567 66.2954 14.1567Z" fill="black"/>
</svg>
