<svg width="79" height="79" viewBox="0 0 79 79" fill="none" xmlns="http://www.w3.org/2000/svg">
<path d="M43.3226 57.3386L47.1452 77.7257H36.9517L40.7742 57.3386H43.3226Z" fill="#FFEAA7"/>
<path d="M46.5181 54.1246L43.323 57.3387H40.7746L37.5796 54.1246C38.7343 53.333 40.0292 52.7484 41.4085 52.4012L42.0488 52.2419L42.6891 52.4012C44.0684 52.7484 45.3633 53.333 46.5181 54.1246Z" fill="#FCD770"/>
<path d="M24.2099 19.1128C24.2099 22.0275 24.9091 24.7782 26.1483 27.2071C24.9824 29.9402 22.2715 31.8547 19.1131 31.8547C17.7195 31.8547 16.415 31.4804 15.2905 30.829C14.1661 31.4804 12.8616 31.8547 11.468 31.8547C7.45585 31.8547 4.16843 28.7632 3.84988 24.8339C2.27147 23.4323 1.27441 21.3904 1.27441 19.1128C1.27441 16.8352 2.27147 14.7933 3.84988 13.3917C4.16843 9.46236 7.45585 6.37085 11.468 6.37085C12.8616 6.37085 14.1661 6.74514 15.2905 7.39658C16.415 6.74514 17.7195 6.37085 19.1131 6.37085C22.2715 6.37085 24.9824 8.28533 26.1483 11.0185C24.9091 13.4474 24.2099 16.1997 24.2099 19.1128Z" fill="#E6E9ED"/>
<path d="M24.2101 39.5C24.2101 39.9651 24.0843 40.3984 23.8661 40.7742C24.0843 41.1501 24.2101 41.5834 24.2101 42.0484C24.2101 43.4564 23.0697 44.5968 21.6617 44.5968C21.1966 44.5968 20.7634 44.471 20.3875 44.2528C20.0116 44.471 19.5784 44.5968 19.1133 44.5968C17.7053 44.5968 16.5649 43.4564 16.5649 42.0484C16.5649 41.5834 16.6908 41.1501 16.909 40.7742C16.6908 40.3984 16.5649 39.9651 16.5649 39.5C16.5649 38.0921 17.7053 36.9517 19.1133 36.9517C19.5784 36.9517 20.0116 37.0775 20.3875 37.2957C20.7634 37.0775 21.1966 36.9517 21.6617 36.9517C23.0697 36.9517 24.2101 38.0921 24.2101 39.5Z" fill="#E6E9ED"/>
<path d="M64.984 57.3387V47.1451H75.1776V67.9702C75.1776 69.9595 74.3717 71.7625 73.0672 73.067C71.7628 74.3714 69.9598 75.1774 67.9704 75.1774C66.0576 75.1774 64.2243 74.4176 62.8737 73.067L57.3389 67.5322V77.7258H47.1453L43.3228 57.3387L46.5178 54.1245C47.7617 54.9766 48.8432 56.0629 49.6937 57.3387C50.9058 55.722 51.922 53.9764 52.7263 52.1384C53.5306 50.3019 54.1231 48.3715 54.4879 46.387C58.8169 48.5818 62.3767 52.1224 64.5859 56.5439L64.984 57.3387Z" fill="#FF826E"/>
<path d="M37.5794 54.1245L40.7745 57.3387L36.9519 77.7258H24.21C25.6179 77.7258 26.7583 76.5854 26.7583 75.1774V72.629V52.2419C26.7583 51.0027 25.8744 49.9706 24.7037 49.7413C26.1818 48.4177 27.8319 47.2885 29.6094 46.387C29.9741 48.3715 30.5666 50.3019 31.3709 52.1384C32.1753 53.9764 33.1914 55.722 34.4035 57.3387C35.254 56.0629 36.3355 54.9766 37.5794 54.1245Z" fill="#FF826E"/>
<path d="M54.4881 46.3869C54.1234 48.3715 53.5309 50.3019 52.7266 52.1383C51.9222 53.9763 50.9061 55.722 49.694 57.3386C48.8435 56.0628 47.762 54.9766 46.5181 54.1245C45.3633 53.3329 44.0684 52.7483 42.6891 52.4011L42.0488 52.2418C44.1608 52.2418 46.0721 51.3865 47.4546 50.0024C48.2526 49.2045 48.8753 48.2313 49.2592 47.1451C49.5411 46.3487 49.694 45.4902 49.694 44.5967C51.3696 45.0156 52.9766 45.6192 54.4881 46.3869Z" fill="#FC6E51"/>
<path d="M34.8383 47.1451C35.888 50.1139 38.7199 52.2418 42.0487 52.2418L41.4084 52.4011C40.0291 52.7483 38.7342 53.3329 37.5795 54.1245C36.3355 54.9766 35.2541 56.0628 34.4035 57.3386C33.1915 55.722 32.1753 53.9763 31.3709 52.1383C30.5666 50.3019 29.9741 48.3715 29.6094 46.3869C31.1209 45.6176 32.7296 45.0156 34.4035 44.5967C34.4035 45.4902 34.5564 46.3487 34.8383 47.1451Z" fill="#FC6E51"/>
<path d="M26.7583 72.6289V75.1773C26.7583 76.5853 25.6179 77.7257 24.2099 77.7257H3.8228C2.41482 77.7257 1.27441 76.5853 1.27441 75.1773V72.6289H26.7583Z" fill="#AAB2BD"/>
<path d="M26.7583 52.2417V72.6288H1.27441V52.2417C1.27441 50.8338 2.41482 49.6934 3.8228 49.6934H24.2099C24.3787 49.6934 24.5428 49.7093 24.7036 49.7411C25.8743 49.9705 26.7583 51.0026 26.7583 52.2417Z" fill="#CCD1D9"/>
<path d="M18.7307 61.9257C18.9792 62.257 19.113 62.6584 19.113 63.0725C19.113 63.6013 18.8996 64.0791 18.5539 64.4247C18.2083 64.7704 17.7305 64.9838 17.2017 64.9838H10.8307C9.77474 64.9838 8.91943 64.1285 8.91943 63.0725C8.91943 62.6584 9.05322 62.257 9.30169 61.9257L11.9775 58.358C12.4585 57.7161 13.2135 57.3386 14.0162 57.3386C14.4176 57.3386 14.8062 57.4326 15.1566 57.6078C15.5054 57.7814 15.8144 58.0362 16.0549 58.358L18.7307 61.9257Z" fill="#69D6F4"/>
<path d="M77.726 35.6773V36.9515C77.726 38.3594 76.5856 39.4999 75.1777 39.4999H66.2583C67.3127 39.4999 68.2683 39.0714 68.9612 38.3802C69.6524 37.6873 70.0809 36.7317 70.0809 35.6773C70.0809 34.9733 69.5107 34.4031 68.8067 34.4031H72.6293H76.4518C77.1558 34.4031 77.726 34.9733 77.726 35.6773Z" fill="#F0D0B4"/>
<path d="M72.6295 26.7581V34.4033H68.8069H67.5327V26.7581C67.5327 25.3501 68.6731 24.2097 70.0811 24.2097C70.7851 24.2097 71.4222 24.4948 71.8841 24.9551C72.3444 25.417 72.6295 26.0541 72.6295 26.7581Z" fill="#F0D0B4"/>
<path d="M75.1775 39.4999V47.145H64.9839L63.2908 44.6062C62.7334 43.77 62.4355 42.7857 62.4355 41.7791V36.9515C62.4355 35.5435 63.576 34.4031 64.9839 34.4031H67.5323H68.8065C69.5105 34.4031 70.0807 34.9733 70.0807 35.6773C70.0807 36.7317 69.6523 37.6873 68.961 38.3802C68.2682 39.0714 67.3125 39.4999 66.2581 39.4999H75.1775Z" fill="#F0D0B4"/>
<path d="M34.8384 47.145H49.2591C48.8752 48.2313 48.2525 49.2044 47.4545 50.0024C46.072 51.3865 44.1607 52.2418 42.0487 52.2418C38.7199 52.2418 35.888 50.1139 34.8384 47.145Z" fill="#F0D0B4"/>
<path d="M49.6936 42.0483V44.5967C49.6936 45.4903 49.5407 46.3487 49.2588 47.1451H34.8381C34.5562 46.3487 34.4033 45.4903 34.4033 44.5967V42.0483H36.9517H42.0485H47.1453H49.6936Z" fill="#CCD1D9"/>
<path d="M47.1454 42.0483H42.0487H36.9519H34.4035C32.9955 42.0483 31.8551 40.9079 31.8551 39.4999V36.2061C31.8551 34.7711 31.261 33.3918 30.1891 32.4377C28.5374 30.966 27.1613 29.1949 26.1483 27.2071C24.9092 24.7782 24.21 22.0276 24.21 19.1128C24.21 16.1997 24.9092 13.4475 26.1483 11.0185C29.1347 5.1636 35.2604 1.17697 42.3067 1.27572C51.9507 1.4111 59.8046 9.3111 59.8874 18.9567C59.932 24.2861 57.64 29.0802 53.9751 32.3772C52.8857 33.3583 52.2422 34.7408 52.2422 36.2061V39.4999C52.2422 40.9079 51.1018 42.0483 49.6938 42.0483H47.1454Z" fill="#FFEAA7"/>
<path d="M40.774 25.4837C39.3689 25.4837 38.2256 24.3405 38.2256 22.9353H35.6772C35.6772 25.7457 37.9636 28.0321 40.774 28.0321V30.5805H43.3224V28.0321H48.4192V22.9353C48.4192 20.1249 46.1328 17.8386 43.3224 17.8386H40.774C39.3689 17.8386 38.2256 16.6953 38.2256 15.2902V12.7418H43.3224C44.7275 12.7418 45.8708 13.8851 45.8708 15.2902H48.4192C48.4192 12.4798 46.1328 10.1934 43.3224 10.1934V7.64502H40.774V10.1934H35.6772V15.2902C35.6772 18.1006 37.9636 20.387 40.774 20.387H43.3224C44.7275 20.387 45.8708 21.5302 45.8708 22.9353V25.4837H40.774Z" fill="black"/>
<path d="M76.4516 33.129H73.9032V26.758C73.9032 24.6503 72.1883 22.9354 70.0806 22.9354C67.973 22.9354 66.2581 24.6503 66.2581 26.758V33.129H64.9839C62.8762 33.129 61.1613 34.8439 61.1613 36.9516V41.7793C61.1613 43.0413 61.5313 44.2632 62.2313 45.3133L63.7097 47.5309V52.642C60.5967 48.3257 56.1282 45.1443 50.9677 43.6253V43.1032C52.4507 42.5773 53.5161 41.161 53.5161 39.4998V36.2058C53.5161 35.1241 53.9938 34.0738 54.8268 33.3246C58.899 29.6613 61.2078 24.42 61.1608 18.9448C61.1176 13.9449 59.1379 9.22384 55.5854 5.65132C52.033 2.07849 47.3232 0.0721097 42.3238 0.00171054C37.1642 -0.0709185 32.301 1.88258 28.6297 5.5024C27.6876 6.43129 26.8549 7.44061 26.1363 8.51412C24.4717 6.38765 21.9012 5.09673 19.1129 5.09673C17.7887 5.09673 16.4807 5.39282 15.2903 5.95793C14.0999 5.39282 12.7919 5.09673 11.4677 5.09673C7.02542 5.09673 3.24043 8.4348 2.63551 12.7854C0.95453 14.4555 0 16.7338 0 19.1129C0 21.4919 0.95453 23.7702 2.63551 25.4402C3.24043 29.7909 7.02542 33.129 11.4677 33.129C12.7919 33.129 14.0999 32.8329 15.2903 32.2678C16.4807 32.8329 17.7887 33.129 19.1129 33.129C21.9048 33.129 24.4782 31.8349 26.1426 29.7033C27.0397 31.0513 28.1108 32.2926 29.3418 33.3889C30.1291 34.0902 30.5806 35.117 30.5806 36.2062V39.5C30.5806 41.161 31.646 42.5773 33.129 43.1034V43.6263C29.8857 44.5834 26.8536 46.2251 24.2806 48.4211C24.257 48.4207 24.2334 48.4193 24.2097 48.4193H3.82258C1.71491 48.4193 0 50.1342 0 52.2419V75.1774C0 77.285 1.71491 79 3.82258 79H58.6129V70.6084L61.9718 73.9674C63.5738 75.5692 65.7039 76.4516 67.9695 76.4516C72.6466 76.4516 76.4516 72.6465 76.4516 67.9694V40.555C77.9346 40.0291 79 38.6126 79 36.9516V35.6774C79 34.2723 77.8567 33.129 76.4516 33.129ZM68.8064 26.758C68.8064 26.0555 69.3781 25.4838 70.0806 25.4838C70.7832 25.4838 71.3548 26.0555 71.3548 26.758V33.129H68.8064V26.758ZM63.7097 36.9516C63.7097 36.249 64.2813 35.6774 64.9839 35.6774H68.8064C68.8064 37.0825 67.6632 38.2258 66.2581 38.2258V40.7742H73.9032V45.8709H65.6657L64.3516 43.8997C63.9315 43.2697 63.7097 42.5365 63.7097 41.7793V36.9516ZM48.4194 43.3225V44.5967C48.4194 45.033 48.3751 45.459 48.2911 45.8709H35.8056C35.7217 45.459 35.6774 45.033 35.6774 44.5967V43.3225H48.4194ZM42.0484 50.9677C39.9686 50.9677 38.1186 49.9657 36.9551 48.4193H47.1417C45.9782 49.9657 44.1282 50.9677 42.0484 50.9677ZM37.8432 52.4599C36.5738 53.1728 35.4288 54.093 34.4561 55.1885C32.8603 52.724 31.703 49.9713 31.058 47.1072C31.7832 46.7789 32.5268 46.4916 33.2843 46.2452C33.7894 48.9358 35.5048 51.2044 37.8432 52.4599ZM41.8318 58.6129H42.2652L45.6099 76.4516H38.487L41.8318 58.6129ZM42.7925 56.0645H41.3043L39.6445 54.3948C40.3026 54.0745 40.9957 53.8185 41.7176 53.6381L42.0482 53.5554L42.3789 53.6381C43.1007 53.8185 43.7939 54.0745 44.452 54.3948L42.7925 56.0645ZM46.2535 52.4599C48.5923 51.2041 50.3079 48.9354 50.8128 46.2444C51.5738 46.4911 52.317 46.7786 53.0394 47.105C52.3945 49.9697 51.2371 52.7232 49.6408 55.1885C48.668 54.093 47.523 53.1728 46.2535 52.4599ZM19.1129 30.5806C17.995 30.5806 16.8937 30.2853 15.9285 29.7267L15.2903 29.3572L14.6521 29.7266C13.6869 30.2853 12.5857 30.5806 11.4677 30.5806C8.17347 30.5806 5.38538 28.011 5.12003 24.7308L5.07878 24.22L4.6954 23.8799C3.3309 22.6702 2.54839 20.9326 2.54839 19.1129C2.54839 17.2932 3.3309 15.5556 4.6954 14.3455L5.07878 14.0056L5.12003 13.4948C5.38538 10.2145 8.17347 7.64512 11.4677 7.64512C12.5857 7.64512 13.6869 7.94041 14.6521 8.49899L15.2903 8.8685L15.9285 8.49915C16.8937 7.94041 17.995 7.64512 19.1129 7.64512C21.48 7.64512 23.6251 8.94878 24.728 11.0077C23.5547 13.5107 22.9355 16.2622 22.9355 19.1129C22.9355 21.9371 23.5646 24.6951 24.7367 27.2026C23.6364 29.2706 21.4859 30.5806 19.1129 30.5806ZM31.0365 31.4859C27.5078 28.3433 25.4839 23.8334 25.4839 19.1129C25.4839 14.6441 27.2365 10.455 30.4188 7.31717C33.5436 4.23633 37.6644 2.54835 42.0468 2.54835C42.1269 2.54835 42.2077 2.54882 42.2879 2.54994C51.2124 2.67576 58.5357 10.0404 58.6123 18.967C58.653 23.7122 56.6519 28.2549 53.1222 31.4302C51.7531 32.662 50.9677 34.4027 50.9677 36.206V39.5C50.9677 40.2025 50.3961 40.7742 49.6935 40.7742H48.4194V30.5806H45.871V40.7742H43.3226V33.129H40.7742V40.7742H38.2258V30.5806H35.6774V40.7742H34.4032C33.7007 40.7742 33.129 40.2025 33.129 39.5V36.2062C33.129 34.3906 32.3664 32.6703 31.0365 31.4859ZM3.82258 50.9677H24.2097C24.9122 50.9677 25.4839 51.5393 25.4839 52.2419V71.3548H2.54839V52.2419C2.54839 51.5393 3.12002 50.9677 3.82258 50.9677ZM24.2097 76.4516H3.82258C3.12002 76.4516 2.54839 75.8799 2.54839 75.1774V73.9032H25.4839V75.1774C25.4839 75.8799 24.9122 76.4516 24.2097 76.4516ZM26.9304 49.56C27.5102 49.122 28.1109 48.7124 28.7315 48.3351C29.6183 51.8541 31.2077 55.2017 33.3839 58.1032L34.4644 59.5438L35.4634 58.0455C36.0258 57.202 36.6996 56.4529 37.4605 55.8123L39.3984 57.762L35.894 76.4516H27.8139C27.9553 76.0529 28.0323 75.624 28.0323 75.1774V52.2419C28.0323 51.1978 27.6111 50.2506 26.9304 49.56ZM67.9695 73.9032C66.3847 73.9032 64.8944 73.286 63.7737 72.1652L58.6129 67.0044V56.0645H56.0645V76.4516H48.2027L44.6984 57.762L46.6363 55.8123C47.3971 56.4529 48.071 57.202 48.6334 58.0455L49.6324 59.5438L50.7129 58.1032C52.8897 55.2007 54.4797 51.8517 55.3663 48.3312C58.7953 50.4166 61.6101 53.4403 63.4464 57.1128L63.7095 57.6392V66.258H66.2579V48.4193H73.9031V67.9694C73.9032 71.2414 71.2413 73.9032 67.9695 73.9032ZM76.4516 36.9516C76.4516 37.6541 75.88 38.2258 75.1774 38.2258H70.6692C71.1043 37.4754 71.3548 36.6055 71.3548 35.6774H76.4516V36.9516Z" fill="black"/>
<path d="M10.8305 66.258H17.2015C18.9579 66.258 20.387 64.829 20.387 63.0725C20.387 62.3876 20.1606 61.7087 19.7499 61.1612L17.0741 57.5935C16.3559 56.6361 15.2126 56.0645 14.016 56.0645C12.8194 56.0645 11.6761 56.6361 10.9579 57.5935L8.28243 61.1609C7.87135 61.7087 7.64502 62.3876 7.64502 63.0725C7.64502 64.829 9.07403 66.258 10.8305 66.258ZM10.321 62.6903L12.9968 59.1225C13.236 58.8035 13.6172 58.6128 14.016 58.6128C14.4148 58.6128 14.796 58.8033 15.0352 59.1225L17.7113 62.6904C17.7933 62.7998 17.8386 62.9355 17.8386 63.0725C17.8386 63.4239 17.5528 63.7096 17.2015 63.7096H10.8305C10.4791 63.7096 10.1934 63.4239 10.1934 63.0725C10.1934 62.9355 10.2386 62.7998 10.321 62.6903Z" fill="black"/>
<path d="M19.1131 45.871C19.5478 45.871 19.9791 45.7959 20.3873 45.6509C20.7955 45.7959 21.2268 45.871 21.6615 45.871C23.7692 45.871 25.4841 44.1563 25.4841 42.0485C25.4841 41.6138 25.4089 41.1825 25.264 40.7743C25.4089 40.3659 25.4841 39.9347 25.4841 39.5001C25.4841 37.3922 23.7692 35.6775 21.6615 35.6775C21.2268 35.6775 20.7955 35.7527 20.3873 35.8974C19.9791 35.7525 19.5478 35.6775 19.1131 35.6775C17.0054 35.6775 15.2905 37.3922 15.2905 39.5001C15.2905 39.9347 15.3657 40.3659 15.5106 40.7743C15.3657 41.1825 15.2905 41.6138 15.2905 42.0485C15.2905 44.1563 17.0054 45.871 19.1131 45.871ZM18.0111 40.1356C17.8967 39.9384 17.8389 39.7246 17.8389 39.5001C17.8389 38.7975 18.4105 38.2259 19.1131 38.2259C19.3377 38.2259 19.5516 38.2837 19.7486 38.3981L20.3873 38.7679L21.026 38.3981C21.223 38.2839 21.4369 38.2259 21.6615 38.2259C22.3641 38.2259 22.9357 38.7975 22.9357 39.5001C22.9357 39.7246 22.8779 39.9384 22.7635 40.1356L22.3937 40.7743L22.7637 41.413C22.8779 41.6101 22.9357 41.8239 22.9357 42.0485C22.9357 42.751 22.3641 43.3227 21.6615 43.3227C21.4369 43.3227 21.2232 43.2648 21.0262 43.1506L20.3873 42.7805L19.7485 43.1506C19.5514 43.2648 19.3377 43.3227 19.1131 43.3227C18.4105 43.3227 17.8389 42.751 17.8389 42.0485C17.8389 41.8239 17.8967 41.6101 18.0109 41.413L18.3809 40.7743L18.0111 40.1356Z" fill="black"/>
<path d="M17.8386 22.9355H15.2902V15.2903H12.7418V22.9355H10.1934V17.8387H7.64502V25.4839H20.387V12.7419H17.8386V22.9355Z" fill="black"/>
</svg>
