<svg width="99" height="20" viewBox="0 0 99 20" fill="none" xmlns="http://www.w3.org/2000/svg">
<path fill-rule="evenodd" clip-rule="evenodd" d="M13.7998 8.36623H16.9936V8.79518C16.1291 8.84769 16.0486 9.00729 16.0486 9.69907V15.4359C16.0486 16.674 16.7539 17.3132 17.7382 17.3132C18.8704 17.3132 19.5617 16.594 19.5617 15.4103V9.83234C19.5617 9.14011 19.3498 8.84769 18.5364 8.79518V8.36623H21.0873V8.79518C20.2764 8.84769 20.0627 9.14011 20.0627 9.83234V15.1164C20.0627 16.766 19.3359 17.7399 17.4859 17.7399C15.6238 17.7399 14.7455 16.7267 14.7455 15.0618V9.69907C14.7455 9.00729 14.6664 8.84769 13.7998 8.79518V8.36623ZM20.8943 17.5251V17.0971C21.5329 17.0693 21.7458 16.8298 21.7458 16.4291V12.2627C21.7458 11.687 21.5865 11.5937 20.8679 11.5653V11.1517L22.8097 11.0645V12.3551H22.8368C23.1955 11.6086 23.7151 10.9945 24.6211 10.9945C25.7257 10.9945 26.2448 11.7156 26.2448 12.8882V16.4315C26.2448 16.8827 26.4304 17.0693 27.0685 17.0971V17.5251H25.1013V12.7822C25.1013 11.9022 24.7681 11.6086 24.3143 11.6086C23.6096 11.6086 22.8897 12.5412 22.8897 13.847V16.4315C22.8897 16.8298 23.1021 17.0693 23.7411 17.0971V17.5251H20.8943ZM29.362 9.09041C29.362 9.59598 29.0821 9.94239 28.6819 9.94239C28.283 9.94239 28.0022 9.59598 28.0022 9.09041C28.0022 8.58278 28.283 8.23755 28.6819 8.23755C29.0821 8.23755 29.362 8.58278 29.362 9.09041ZM27.3671 17.5251V17.0971C28.0052 17.0693 28.2168 16.8298 28.2168 16.4291V12.1893C28.2168 11.6159 28.0581 11.5221 27.3671 11.4955V11.0645L29.362 10.9918V16.4291C29.362 16.8298 29.5757 17.0693 30.2134 17.0971V17.5251H27.3671ZM32.2685 8.69815V11.1517H33.8706V11.6531H32.2685V16.3529C32.2685 16.9416 32.4684 17.1814 32.8301 17.1814C33.2709 17.1814 33.6036 16.9001 33.6036 15.485V15.1118H34.0324V15.7392C34.0324 17.088 33.5388 17.6835 32.5359 17.6835C31.6559 17.6835 31.1259 17.1283 31.1259 16.0587V11.6531H30.2995V11.2569C31.2579 10.8581 31.7633 10.404 31.8436 8.69815H32.2685ZM39.4764 14.2956C39.4764 12.3803 38.5448 10.9945 37.0704 10.9945C35.5674 10.9945 34.5035 12.3803 34.5035 14.3347C34.5035 16.0047 35.5947 17.6835 37.2431 17.6835C38.7313 17.6835 39.3847 16.5273 39.5049 15.336L39.0779 15.2563C38.9441 16.166 38.5323 17.1814 37.3758 17.1814C36.485 17.1814 35.8075 16.166 35.8075 14.2956H39.4764ZM35.8075 13.7939C35.8075 12.0874 36.312 11.4209 37.0704 11.4209C37.7751 11.4209 38.1733 12.0874 38.1733 13.7939H35.8075ZM43.095 8.78128C43.7856 8.8082 43.9585 8.90005 43.9585 9.4738V11.8687L43.9318 11.8814C43.6661 11.3631 43.2152 10.9918 42.5901 10.9918C41.1949 10.9918 40.1436 12.4279 40.1436 14.3619C40.1436 16.4539 41.2476 17.6835 42.443 17.6835C43.2533 17.6835 43.693 17.2138 43.984 16.5875H44.0122V17.5266L45.8738 17.4469V17.0243C45.3429 17.0347 45.1028 16.8237 45.1028 16.1015V8.27956L43.095 8.36505V8.78128ZM41.4484 14.3746C41.4484 12.3214 41.9251 11.4955 42.6572 11.4955C43.4666 11.4955 43.9585 12.4823 43.9585 14.3746C43.9585 16.6678 43.2533 17.2531 42.5498 17.2531C41.8861 17.2531 41.4484 16.4269 41.4484 14.3746ZM46.2048 17.5251V17.0971C47.004 17.0431 47.1377 16.8827 47.1377 16.1881V9.69656C47.1377 9.00729 47.004 8.84724 46.2048 8.79518V8.36623H49.4232V8.79518C48.6004 8.84724 48.4407 9.00729 48.4407 9.69656V12.4569H51.3102V9.69656C51.3102 9.00729 51.1487 8.84724 50.3261 8.79518V8.36623H53.543V8.79518C52.7459 8.84724 52.6119 9.00729 52.6119 9.69656V16.1881C52.6119 16.8827 52.7459 17.0431 53.543 17.0971V17.5251H50.3261V17.0971C51.1487 17.0431 51.3102 16.8827 51.3102 16.1881V12.9595H48.4407V16.1881C48.4407 16.8827 48.6004 17.0431 49.4232 17.0971V17.5251H46.2048ZM58.7138 14.2956C58.7138 12.3803 57.7832 10.9945 56.3076 10.9945C54.8048 10.9945 53.74 12.3803 53.74 14.3347C53.74 16.0047 54.8305 17.6835 56.4805 17.6835C57.9681 17.6835 58.6218 16.5273 58.7401 15.336L58.3144 15.2563C58.1812 16.166 57.769 17.1814 56.613 17.1814C55.7221 17.1814 55.0442 16.166 55.0442 14.2956H58.7138ZM55.0442 13.7939C55.0442 12.0874 55.5484 11.4209 56.3076 11.4209C57.0125 11.4209 57.4107 12.0874 57.4107 13.7939H55.0442ZM63.9438 15.6849C63.9163 16.6446 63.8113 16.9376 63.5586 16.9376C63.3752 16.9376 63.2808 16.764 63.2808 16.3794V12.6733C63.2808 11.6752 62.708 10.9945 61.2197 10.9945C60.0628 10.9945 59.2106 11.7156 59.2106 12.6209C59.2106 13.1534 59.477 13.4217 59.85 13.4217C60.222 13.4217 60.5158 13.1271 60.5158 12.6482C60.5158 12.2608 60.3821 11.9408 59.9556 11.9022C60.2359 11.5677 60.6208 11.4209 61.0865 11.4209C61.7911 11.4209 62.1378 11.7546 62.1378 12.5146V13.6072C60.9922 14.036 58.8956 14.6629 58.8956 16.1812C58.8956 17.0623 59.4909 17.6835 60.5119 17.6835C61.443 17.6835 61.8437 17.2462 62.1629 16.6476H62.1898C62.2694 17.3651 62.6284 17.6835 63.267 17.6835C64.09 17.6835 64.3711 17.088 64.3711 15.6884L63.9438 15.6849ZM62.1378 14.8754C62.1378 16.3818 61.5244 17.1814 60.8457 17.1814C60.4341 17.1814 60.1148 16.8353 60.1148 16.1281C60.1148 14.9945 61.0718 14.4889 62.1378 14.1146V14.8754ZM64.1956 17.5251V17.0971C64.8341 17.0693 65.0478 16.8298 65.0478 16.4315V9.50028C65.0478 9.04648 64.8208 8.8082 64.169 8.78128V8.35662L66.1902 8.27956V16.4315C66.1902 16.8298 66.4038 17.0693 67.0423 17.0971V17.5251H64.1956ZM68.9684 8.69815V11.1517H70.5727V11.6531H68.9684V16.3529C68.9684 16.9416 69.1697 17.1814 69.5292 17.1814C69.9722 17.1814 70.3051 16.9001 70.3051 15.485V15.1118H70.7324V15.7392C70.7324 17.088 70.2382 17.6835 69.2357 17.6835C68.3569 17.6835 67.8254 17.1283 67.8254 16.0587V11.6531H67.0008V11.2569C67.9577 10.8581 68.4631 10.404 68.5445 8.69815H68.9684ZM70.6846 17.5251V17.0971C71.322 17.0693 71.5374 16.8298 71.5374 16.4315V9.4738C71.5374 8.90005 71.3763 8.8082 70.6574 8.78128V8.36505L72.6794 8.27956V12.1951H72.707C72.973 11.6086 73.4792 10.9945 74.3719 10.9945C75.3963 10.9945 76.0352 11.7156 76.0352 12.8882V16.4315C76.0352 16.8298 76.262 17.0693 76.8598 17.0971V17.5251H74.8913V12.8469C74.8913 11.9166 74.5577 11.6086 74.078 11.6086C73.4126 11.6086 72.6794 12.4878 72.6794 13.767V16.4315C72.6794 16.8298 72.8934 17.0693 73.5328 17.0971V17.5251H70.6846ZM81.8059 15.3149C81.6853 16.5748 81.1015 17.7017 79.634 17.7017C78.2841 17.7017 77.0364 16.4927 77.0364 14.5207C77.0364 12.8521 78.1898 10.9763 79.7975 10.9763C80.9302 10.9763 81.6444 11.6821 81.6444 12.7197C81.6444 13.358 81.4465 13.7043 80.9695 13.7043C80.5979 13.7043 80.3461 13.3836 80.3461 12.9055C80.3461 12.3332 80.5453 12.1062 80.8887 12.1062C80.9816 12.1062 81.0352 12.1466 81.09 12.1599L81.1145 12.1342C80.9172 11.6404 80.4923 11.3955 79.9982 11.3955C79.0058 11.3955 78.3361 12.4003 78.3361 14.2937C78.3361 16.5493 79.0323 17.1907 79.8093 17.1907C80.8887 17.1907 81.2347 16.1997 81.3802 15.2579L81.8059 15.3149ZM87.3263 15.7017C87.2987 16.6718 87.1955 16.9694 86.9413 16.9694C86.7576 16.9694 86.6627 16.7937 86.6627 16.4026V12.6625C86.6627 11.6509 86.0898 10.9763 84.5861 10.9763C83.4187 10.9763 82.5707 11.6919 82.5707 12.6064C82.5707 13.1465 82.8364 13.4151 83.2068 13.4151C83.5797 13.4151 83.8692 13.119 83.8692 12.6337C83.8692 12.2426 83.7378 11.9192 83.3126 11.8793C83.5918 11.544 83.9787 11.3955 84.4496 11.3955C85.1641 11.3955 85.5154 11.7307 85.5154 12.4997V13.6032C84.3628 14.0239 82.2523 14.6577 82.2523 16.1868C82.2523 17.071 82.8512 17.7017 83.88 17.7017C84.8179 17.7017 85.2203 17.2583 85.5415 16.6545H85.569C85.6489 17.3796 86.0086 17.7017 86.6497 17.7017C87.47 17.7017 87.7435 17.0999 87.7435 15.6884L87.3263 15.7017ZM85.5154 14.8708C85.5154 16.3864 84.8993 17.1907 84.216 17.1907C83.7995 17.1907 83.4776 16.8446 83.4776 16.1321C83.4776 14.9911 84.4424 14.4814 85.5154 14.1052V14.8708ZM87.9097 17.5333V17.1159C88.4695 17.0898 88.6832 16.848 88.6832 16.4442V12.798C88.6832 11.8866 88.5222 11.5913 87.8553 11.5653V11.1332L89.6961 11.0542V12.6024H89.7233C89.8963 11.905 90.3705 10.9763 91.1649 10.9763C91.6569 10.9763 92.1363 11.381 92.1363 12.1342C92.1363 12.7116 91.8579 13.0058 91.5109 13.0058C91.2185 13.0058 90.9104 12.8188 90.9104 12.2148C90.9104 11.8923 91.0974 11.5567 91.4827 11.5567C91.4176 11.4495 91.2833 11.3955 91.138 11.3955C90.2389 11.4079 89.8297 13.3701 89.8297 14.5363V16.4442C89.8297 16.8468 90.0411 17.0898 90.938 17.1159V17.5333H87.9097ZM97.111 14.3144C97.111 12.3696 96.1841 10.9763 94.703 10.9763C93.1948 10.9763 92.1363 12.3696 92.1363 14.3543C92.1363 16.0204 93.223 17.7017 94.8769 17.7017C96.3712 17.7017 97.0176 16.54 97.1359 15.3548L96.7191 15.2718C96.5859 16.1802 96.172 17.1907 95.0108 17.1907C94.1146 17.1907 93.4345 16.1802 93.4345 14.3144H97.111ZM93.4345 13.8042C93.4345 12.072 93.9415 11.3955 94.7028 11.3955C95.4106 11.3955 95.8122 12.072 95.8122 13.8042H93.4345ZM97.4036 9.95126H97.6424C97.767 9.95126 97.8079 10.0437 97.8079 10.1267C97.8079 10.2274 97.7557 10.3122 97.6424 10.3122H97.4036V9.95126ZM97.4036 10.4601H97.5888C97.6424 10.4601 97.7468 10.4664 97.761 10.5895C97.7731 10.7441 97.7644 10.8932 97.8079 10.9726H97.9911C97.9643 10.8997 97.9475 10.7217 97.9435 10.6713C97.9383 10.441 97.8872 10.3956 97.7437 10.381V10.3758C97.8908 10.3486 97.9928 10.2446 97.9928 10.1083C97.9928 9.96694 97.8933 9.82391 97.6735 9.82391H97.2166V10.9726H97.4036V10.4601ZM97.5913 9.39925C97.0402 9.39925 96.5927 9.8421 96.5927 10.3922C96.5923 10.5237 96.6178 10.654 96.6678 10.7756C96.7179 10.8971 96.7914 11.0076 96.8842 11.1006C96.977 11.1937 97.0872 11.2674 97.2086 11.3176C97.3299 11.3678 97.46 11.3934 97.5913 11.3931C98.1373 11.3931 98.5829 10.95 98.5829 10.3922C98.5829 10.2618 98.5573 10.1326 98.5074 10.0122C98.4576 9.89169 98.3845 9.78222 98.2924 9.69002C98.2003 9.59781 98.091 9.52468 97.9707 9.47479C97.8504 9.4249 97.7215 9.39924 97.5913 9.39925ZM97.5913 9.54805C97.7024 9.54776 97.8125 9.56949 97.9152 9.612C98.0179 9.65451 98.1112 9.71696 98.1897 9.79574C98.2682 9.87452 98.3304 9.96808 98.3726 10.071C98.4149 10.174 98.4364 10.2843 98.4359 10.3956C98.4359 10.868 98.0621 11.2448 97.5913 11.2448C97.4797 11.2453 97.3691 11.2237 97.2659 11.1812C97.1627 11.1388 97.0689 11.0763 96.9898 10.9974C96.9108 10.9184 96.8482 10.8246 96.8055 10.7213C96.7629 10.6181 96.741 10.5074 96.7413 10.3956C96.7413 9.92701 97.1207 9.54805 97.5913 9.54805Z" fill="white"/>
<path fill-rule="evenodd" clip-rule="evenodd" d="M3.75929 19.1788C3.36854 19.0875 3.00467 18.7515 2.86408 18.371C2.45044 18.3029 2.09868 17.9579 1.94775 17.5026C1.95204 17.5026 1.95469 17.5026 1.95898 17.5038L3.38848 17.6656C3.94743 17.4569 4.74872 16.814 5.19175 15.2251C5.50497 14.1007 5.55001 12.4054 5.55001 10.4704V2.96313L4.65997 2.76508L6.34997 1.85793V11.219C6.34997 12.8925 6.28455 14.3737 5.93323 15.5637C5.71615 16.4242 4.80322 18.1804 3.22146 18.391L4.33774 18.5244C5.35183 18.274 6.18384 17.3533 6.64547 16.1668C7.17238 14.7865 7.25892 12.9422 7.25892 10.7663V2.06116L6.34997 1.85793L8.06744 0.937026V11.1511C8.06744 13.7115 7.79705 15.4891 7.23854 16.7406C6.85045 17.5853 5.77227 19.1979 4.12479 19.2127L5.40278 19.3661C6.3863 19.1961 7.41989 18.3737 8.0351 17.0999C8.69315 15.7395 8.99515 13.7217 8.99515 10.7663V1.14336L8.06744 0.937026L9.8115 0V10.846C9.8115 14.909 9.19362 17.9187 7.24858 19.2698C6.63071 19.6844 5.98167 20.0311 5.18747 19.9978C4.60326 19.9726 4.06764 19.7023 3.75929 19.1788Z" fill="#7E868A"/>
<path fill-rule="evenodd" clip-rule="evenodd" d="M2.21699 17.5252H2.21271H2.23693C2.24475 17.5252 2.24992 17.5252 2.25849 17.5233C2.26676 17.5233 2.27414 17.5233 2.28241 17.523C2.29053 17.523 2.29792 17.523 2.30574 17.5212C2.31387 17.5212 2.32169 17.5206 2.32952 17.5206C2.33941 17.5184 2.34724 17.5184 2.35713 17.5178C2.36407 17.5172 2.37279 17.5154 2.37884 17.5142C2.39051 17.5125 2.4004 17.512 2.41133 17.5097C2.41872 17.5094 2.42521 17.5079 2.43289 17.5073C2.44589 17.5061 2.45667 17.5027 2.46789 17.5009C2.47439 17.5003 2.48089 17.4987 2.48783 17.4975C2.50171 17.494 2.51338 17.4924 2.52637 17.49C2.53464 17.4882 2.5407 17.4854 2.54926 17.4836C2.56137 17.4808 2.57525 17.4782 2.58913 17.4745C2.59597 17.4717 2.60304 17.4696 2.61025 17.4681C2.62546 17.464 2.63846 17.4606 2.65352 17.4554C2.65913 17.4524 2.66696 17.4502 2.67567 17.4472C2.6894 17.4432 2.70506 17.4381 2.71894 17.4327C2.72588 17.4299 2.73267 17.4261 2.7405 17.4236C2.75438 17.4196 2.77077 17.4126 2.78554 17.4057C2.79382 17.4034 2.8017 17.3999 2.80887 17.3952C2.82364 17.3894 2.84003 17.3814 2.85643 17.3745C2.86248 17.3715 2.87075 17.3669 2.87858 17.3638C2.89364 17.3554 2.90974 17.3467 2.92657 17.3381C2.9346 17.3352 2.94194 17.3306 2.94813 17.3248C2.96467 17.3178 2.98239 17.3069 2.9979 17.2981C3.00528 17.293 3.01222 17.289 3.02005 17.2842C3.03644 17.2733 3.05505 17.2635 3.07144 17.2526C3.07794 17.2473 3.08577 17.241 3.09359 17.2357C3.11115 17.2243 3.12806 17.212 3.14425 17.1987C3.15278 17.1936 3.16087 17.1879 3.16847 17.1814C3.18441 17.1681 3.20169 17.156 3.21941 17.1419C3.22724 17.1353 3.23507 17.1283 3.24157 17.1214C3.25973 17.1075 3.27701 17.0936 3.29266 17.0786C3.30123 17.0705 3.30905 17.0624 3.31644 17.055C3.33504 17.0396 3.35099 17.0244 3.36783 17.0081C3.37714 16.9995 3.38583 16.9903 3.39382 16.9804C3.4111 16.9634 3.42586 16.9477 3.44226 16.9301C3.45304 16.9198 3.46308 16.9079 3.47164 16.8972C3.4873 16.8804 3.5028 16.8631 3.51713 16.8441C3.52702 16.8343 3.53574 16.8226 3.54607 16.8094C3.56173 16.7904 3.57723 16.7729 3.59244 16.7519C3.60145 16.7398 3.61105 16.7273 3.61962 16.7152C3.63616 16.6929 3.65078 16.6731 3.66643 16.6528C3.67588 16.6392 3.68622 16.624 3.69493 16.6101C3.7097 16.5876 3.72269 16.5667 3.7382 16.5442C3.74854 16.5291 3.75902 16.5112 3.76936 16.4956C3.78324 16.4725 3.79697 16.4518 3.81086 16.4275C3.82134 16.4101 3.83079 16.3934 3.83951 16.3761C3.85368 16.3512 3.86801 16.3264 3.88277 16.3027C3.89267 16.2824 3.90094 16.2633 3.91039 16.246C3.92427 16.22 3.93845 16.1946 3.951 16.1669C3.96237 16.1461 3.97182 16.123 3.9826 16.1015C3.99427 16.0759 4.00771 16.0502 4.01937 16.0236C4.0303 15.9987 4.04108 15.9736 4.05186 15.9476C4.06264 15.922 4.07431 15.8965 4.08598 15.8693C4.09602 15.8439 4.10503 15.8193 4.1164 15.7917C4.12674 15.7624 4.13884 15.7353 4.15007 15.7053C4.15878 15.6804 4.16912 15.6526 4.17783 15.6255C4.18905 15.594 4.20249 15.5637 4.21239 15.5316C4.22494 15.4949 4.23616 15.4556 4.24872 15.418C4.25566 15.3944 4.26437 15.3719 4.27205 15.3476C4.2911 15.284 4.31015 15.2188 4.3292 15.1522C4.59354 14.1977 4.66014 12.2651 4.66014 10.9798V2.76514L0.662109 4.91017V13.3754C0.662109 16.6046 1.24144 17.3773 1.95915 17.5039C1.95486 17.5027 1.95221 17.5027 1.94792 17.5027L2.21699 17.5252Z" fill="white"/>
</svg>
