<svg width="77" height="20" viewBox="0 0 77 20" fill="none" xmlns="http://www.w3.org/2000/svg">
<g clip-path="url(#clip0_30_228)">
<path d="M44.8921 5.5814L49.2642 3.95349L44.8921 2.27907V0L52.3805 3.02326V4.88372L44.8921 7.90698V5.5814Z" fill="#D4D4D4"/>
<path d="M3.54339 20.0001C1.96199 20.0001 0.659668 19.2094 0.659668 17.442V17.3489C0.659668 15.2094 2.52013 14.4652 4.7992 14.4652H5.86897V14.0466C5.86897 13.1629 5.49688 12.6513 4.56664 12.6513C3.72943 12.6513 3.31083 13.1164 3.26432 13.7675H0.938738C1.12478 11.8141 2.65967 10.8838 4.70618 10.8838C6.7992 10.8838 8.33409 11.7675 8.33409 13.9536V19.814H5.96199V18.7908C5.49688 19.442 4.70618 20.0001 3.54339 20.0001ZM5.86897 16.9303V16.0931H4.89223C3.68292 16.0931 3.07827 16.4187 3.07827 17.2094V17.3024C3.07827 17.9071 3.45037 18.3257 4.28757 18.3257C5.12478 18.2792 5.86897 17.8141 5.86897 16.9303ZM13.869 20.0001C11.4504 20.0001 9.68292 18.5117 9.68292 15.535V15.3954C9.68292 12.4187 11.5434 10.8373 13.869 10.8373C15.869 10.8373 17.4969 11.8606 17.6829 14.1396H15.3573C15.2178 13.3024 14.7527 12.7443 13.9155 12.7443C12.8922 12.7443 12.148 13.5815 12.148 15.3024V15.5815C12.148 17.3489 12.7992 18.1396 13.9155 18.1396C14.7527 18.1396 15.3573 17.535 15.4969 16.5582H17.7294C17.5899 18.6047 16.2411 20.0001 13.869 20.0001ZM22.9852 20.0001C20.5666 20.0001 18.7992 18.5117 18.7992 15.535V15.3954C18.7992 12.4187 20.6597 10.8373 22.9852 10.8373C24.9852 10.8373 26.6132 11.8606 26.7992 14.1396H24.4736C24.3341 13.3024 23.869 12.7443 23.0318 12.7443C22.0085 12.7443 21.2643 13.5815 21.2643 15.3024V15.5815C21.2643 17.3489 21.9155 18.1396 23.0318 18.1396C23.869 18.1396 24.4736 17.535 24.6132 16.5582H26.8457C26.7062 18.6047 25.3573 20.0001 22.9852 20.0001ZM32.148 20.0001C29.6364 20.0001 27.9155 18.5117 27.9155 15.5815V15.3954C27.9155 12.4652 29.7294 10.8373 32.1015 10.8373C34.2876 10.8373 36.1015 12.0466 36.1015 14.9768V16.0466H30.3806C30.4736 17.628 31.1713 18.2327 32.1945 18.2327C33.1248 18.2327 33.6364 17.721 33.8225 17.1164H36.1015C35.8225 18.7443 34.4271 20.0001 32.148 20.0001ZM30.4271 14.4187H33.6829C33.6364 13.1164 33.0318 12.5582 32.055 12.5582C31.3108 12.6047 30.6132 13.0234 30.4271 14.4187ZM37.5899 11.0699H40.055V12.3722C40.4736 11.535 41.3573 10.8838 42.7062 10.8838C44.2876 10.8838 45.3573 11.8606 45.3573 13.9536V19.814H42.8922V14.3257C42.8922 13.3024 42.4736 12.8373 41.5899 12.8373C40.7527 12.8373 40.055 13.3489 40.055 14.4652V19.814H37.5899V11.0699ZM49.869 8.4187V11.0699H51.5434V12.8838H49.869V17.0234C49.869 17.6745 50.148 18.0001 50.7527 18.0001C51.1248 18.0001 51.3573 17.9536 51.5899 17.8606V19.7675C51.3108 19.8606 50.7992 19.9536 50.1945 19.9536C48.2876 19.9536 47.4038 19.0699 47.4038 17.3024V12.8838H46.3806V11.0699H47.4038V9.44196L49.869 8.4187ZM60.7527 19.814H58.3341V18.5117C57.9155 19.3489 57.0783 20.0001 55.7759 20.0001C54.1945 20.0001 53.0318 19.0234 53.0318 16.9768V11.0699H55.4969V16.6513C55.4969 17.6745 55.9155 18.1396 56.7527 18.1396C57.5899 18.1396 58.2876 17.5815 58.2876 16.5117V11.0699H60.7527V19.814ZM62.5666 11.0699H65.0317V12.6978C65.5434 11.535 66.3806 10.9768 67.6829 10.9768V13.3954C66.0085 13.3954 65.0317 13.9071 65.0317 15.3489V19.8606H62.5666V11.0699ZM72.6597 20.0001C70.148 20.0001 68.4271 18.5117 68.4271 15.5815V15.3954C68.4271 12.4652 70.2411 10.8373 72.6131 10.8373C74.7992 10.8373 76.6131 12.0466 76.6131 14.9768V16.0466H70.9387C71.0318 17.628 71.7294 18.2327 72.7527 18.2327C73.6829 18.2327 74.1945 17.721 74.3806 17.1164H76.6597C76.2876 18.7443 74.9387 20.0001 72.6597 20.0001ZM70.8922 14.4187H74.1945C74.148 13.1164 73.5434 12.5582 72.5666 12.5582C71.8224 12.6047 71.1248 13.0234 70.8922 14.4187Z" fill="#D4D4D4"/>
</g>
<defs>
<clipPath id="clip0_30_228">
<rect width="75.907" height="20" fill="white" transform="translate(0.659668)"/>
</clipPath>
</defs>
</svg>
