<svg width="91" height="20" viewBox="0 0 91 20" fill="none" xmlns="http://www.w3.org/2000/svg">
<path d="M88.6714 0L83.7435 10.5422L81.8903 6.5477H79.8862L82.9336 13.0817H84.5534L90.6618 0H88.6714Z" fill="#D4D4D4"/>
<path d="M67.5323 19.5744H71.4993V12.3129C71.4993 10.652 72.4602 9.48517 73.8878 9.48517C75.2605 9.48517 75.9743 10.446 75.9743 11.8325V19.5744H79.9413V11.0775C79.9413 8.19485 78.2118 6.16328 75.4115 6.16328C73.627 6.16328 72.3779 6.93198 71.4444 8.33212H71.3621V6.54763H67.5185L67.5323 19.5744ZM59.7354 6.19073C55.5899 6.19073 52.8171 9.16945 52.8171 13.0953C52.8171 16.9938 55.5899 19.9999 59.7354 19.9999C63.8809 19.9999 66.6538 16.9938 66.6538 13.0953C66.6675 9.16945 63.8809 6.19073 59.7354 6.19073ZM59.708 17.0624C57.8274 17.0624 56.8253 15.4838 56.8253 13.0953C56.8253 10.6794 57.8137 9.12827 59.708 9.12827C61.5886 9.12827 62.6318 10.6794 62.6318 13.0953C62.6455 15.4838 61.6023 17.0624 59.708 17.0624ZM41.5062 19.5744H52.6524V16.4447H46.338V16.3623L52.3778 9.59499V6.5339H41.5062V9.67735H47.6146V9.75971L41.5062 16.5819V19.5744ZM36.4135 19.5744H40.408V6.54763H36.4135V19.5744ZM27.1479 19.5744H31.1287V13.5895C31.1287 10.8716 32.7622 9.66362 35.2468 10.0068H35.3291V6.57508C35.1232 6.49272 34.8899 6.479 34.5192 6.479C32.9681 6.479 31.9249 7.19279 31.0326 8.71647H30.9503V6.54763H27.1479V19.5744ZM19.8452 17.0761C18.0882 17.0761 17.0175 15.9368 16.8116 14.1797H26.2008C26.2282 11.3795 25.487 9.142 23.9358 7.74186C22.8377 6.72608 21.3964 6.16328 19.557 6.16328C15.6311 6.16328 12.9132 9.142 12.9132 13.0404C12.9132 16.9663 15.5076 19.9587 19.8178 19.9587C21.4513 19.9587 22.7416 19.5195 23.8123 18.792C24.9516 18.0095 25.7752 16.8565 25.9949 15.7172H22.1788C21.8082 16.5682 21.012 17.0761 19.8452 17.0761ZM19.6393 9.00473C21.0395 9.00473 22.0004 10.048 22.1651 11.5717H16.8391C17.1548 10.0342 17.9921 9.00473 19.6393 9.00473ZM4.97908 19.5744H9.15203L13.6819 6.54763H9.68738L7.14792 14.921H7.09301L4.55354 6.54763H0.449219L4.97908 19.5744ZM36.4135 1.90796H40.408V5.44948H36.4135V1.90796Z" fill="#D4D4D4"/>
</svg>
